<?xml version="1.0" encoding="UTF-8"?>
<svg id="Layer_1" data-name="Layer 1" xmlns="http://www.w3.org/2000/svg" viewBox="0 0 1732.65 1210.93">
  <defs>
    <style>
      .cls-1 {
        fill: #31353d;
        stroke-width: 0px;
      }
    </style>
  </defs>
  <path class="cls-1" d="m1582.66,1210.93H149.99C67.28,1210.93,0,1143.68,0,1060.97V150.02C0,67.31,67.28,0,149.99,0h1432.67c82.71,0,149.99,67.31,149.99,150.02v910.95c0,82.71-67.28,149.96-149.99,149.96ZM149.99,57.53c-50.99,0-92.45,41.47-92.45,92.48v910.95c0,50.96,41.47,92.43,92.45,92.43h1432.67c50.99,0,92.45-41.47,92.45-92.43V150.02c0-51.02-41.47-92.48-92.45-92.48H149.99Z"/>
  <path class="cls-1" d="m869.14,808.3c-71.36,0-138.05-27.87-188.28-78.77L50.79,91.36l40.96-40.45,630.07,638.17c40.03,40.62,91.7,61.92,150.52,61.69,57-.84,109.82-24.33,148.64-66.13L1631.12,31.46l42.03,39.33-610.07,653.11c-49.56,53.32-117.01,83.32-189.88,84.39h-4.05Z"/>
  <rect class="cls-1" x="1354.57" y="507.66" width="57.53" height="730" transform="translate(-211.89 1233.76) rotate(-45)"/>
  <rect class="cls-1" x="-13.48" y="848.9" width="715.85" height="57.53" transform="translate(-519.71 500.62) rotate(-45)"/>
</svg>