<?xml version="1.0" encoding="UTF-8"?>
<svg id="Layer_1" data-name="Layer 1" xmlns="http://www.w3.org/2000/svg" viewBox="0 0 1732.65 1732.65">
  <defs>
    <style>
      .cls-1 {
        fill: #31353d;
        stroke-width: 0px;
      }
    </style>
  </defs>
  <path class="cls-1" d="m1358.78,1317.56h-195.45c-.26-3.31-.7-6.38-.71-9.46-.05-28.52-.03-57.05-.03-85.57,0-77.06,0-154.12,0-231.18,0-16.6-.27-33.18-3.09-49.61-3.23-18.79-8.42-36.89-18.64-53.23-14.98-23.94-36.77-37.15-64.55-40.88-19.21-2.58-38.2-1.62-56.87,3.7-29.14,8.3-50.06,26.46-63.33,53.5-7.85,16-12.55,33-14.11,50.72-1.1,12.48-1.73,25.05-1.75,37.58-.13,104.31-.07,208.62-.09,312.92,0,3.57-.27,7.14-.4,10.48-5.38,1.7-181.57,1.93-188.53.29-.16-2.7-.47-5.6-.47-8.49-.03-65.35-.02-130.7-.02-196.06,0-138.58,0-277.16.02-415.74,0-9.51-1.82-10.47,10.51-10.46,56.2.05,112.41.02,168.61.03q10.27,0,10.3,10.2c.02,20.65,0,41.3.02,61.95,0,2.22.14,4.45,1.42,6.91,1.24-1.62,2.51-3.21,3.71-4.85,31.98-43.68,73.81-72.96,126.48-86.29,13.61-3.45,27.47-5.15,41.49-6.37,13.47-1.17,26.83-.64,40.14.46,46.8,3.85,89.94,17.72,126.65,48.21,29.27,24.31,48.96,55.21,61.61,90.79,8.59,24.16,13.87,49.08,15.52,74.68,1.02,15.91,2,31.86,2.02,47.79.16,125.59.09,251.19.07,376.78,0,3.55-.31,7.11-.5,11.21Z"/>
  <path class="cls-1" d="m431.67,1317.2v-630.23c2.41-.31,4.65-.83,6.9-.84,60.67-.04,121.34-.04,182,0,2.08,0,4.15.38,6.02.57,1.63,5.24,1.88,623.61.41,630.19-4.72,1.21-185.95,1.62-195.34.32Z"/>
  <path class="cls-1" d="m528.83,371.56c60.3-.27,115.95,48.08,116.14,116.98.18,64.62-50.63,117.47-116.54,117.28-68.17-.19-116.53-55.89-116.2-117.67.34-64.91,52.99-116.91,116.6-116.59Z"/>
</svg>