<?xml version="1.0" encoding="UTF-8"?>
<svg id="Layer_1" data-name="Layer 1" xmlns="http://www.w3.org/2000/svg" viewBox="0 0 1616.93 1616.99">
  <defs>
    <style>
      .cls-1 {
        fill: #31353d;
        stroke-width: 0px;
      }
    </style>
  </defs>
  <path class="cls-1" d="m808.43,1616.99C362.66,1616.99,0,1254.27,0,808.49S362.66,0,808.43,0s808.49,362.72,808.49,808.49-362.72,808.49-808.49,808.49Zm0-1552.57c-410.28,0-744.01,333.79-744.01,744.07s333.73,744.07,744.01,744.07,744.07-333.79,744.07-744.07S1218.71,64.42,808.43,64.42Z"/>
  <path class="cls-1" d="m808.43,1616.99c-197.24,0-351.73-355.14-351.73-808.49S611.19,0,808.43,0s351.73,355.14,351.73,808.49-154.49,808.49-351.73,808.49Zm0-1552.57c-138.76,0-287.31,298.99-287.31,744.07s148.55,744.07,287.31,744.07,287.31-298.99,287.31-744.07S947.19,64.42,808.43,64.42Z"/>
  <path class="cls-1" d="m1532.36,560.34H84.51c-17.81,0-32.21-14.4-32.21-32.21s14.4-32.21,32.21-32.21h1447.85c17.81,0,32.21,14.4,32.21,32.21s-14.4,32.21-32.21,32.21Z"/>
  <path class="cls-1" d="m1532.36,1116.27H84.51c-17.81,0-32.21-14.4-32.21-32.21s14.4-32.21,32.21-32.21h1447.85c17.81,0,32.21,14.4,32.21,32.21s-14.4,32.21-32.21,32.21Z"/>
</svg>