<?xml version="1.0" encoding="UTF-8"?>
<svg id="Layer_1" data-name="Layer 1" xmlns="http://www.w3.org/2000/svg" viewBox="0 0 1746.12 1889.16">
  <defs>
    <style>
      .cls-1 {
        fill: #31353d;
        stroke-width: 0px;
      }
    </style>
  </defs>
  <path class="cls-1" d="m873.31,1889.29c-32.52,0-65.05-9.2-97.4-27.6-37.71-21.45-76.62-42.61-114.28-63.06-69.55-37.81-141.5-76.9-209.84-120.03C207.75,1524.57,60.01,1300.76,12.67,1013.36c-7.38-44.83-11.26-94.44-11.83-151.69C-.24,757.64-.05,651.95.16,549.75c.07-39.59.14-79.17.14-118.77.03-112.53,62.1-181.87,174.79-195.29,213.24-25.37,412.33-93.61,591.73-202.82C819.42.84,869.64-7.93,920.34,6.07c16.53,4.56,33.69,12.09,49.59,21.78,165.72,100.81,345.93,167.63,535.57,198.58,13.26,2.17,26.6,3.83,39.94,5.53,17.29,2.17,35.16,4.44,52.97,7.73,87.54,16.17,146.78,87.02,147.41,176.28.4,57.67.33,461.68-4.42,525.83-18.19,245.95-121.75,458.7-307.8,632.35-52.69,49.21-114.23,93.54-182.9,131.76-32.91,18.32-65.85,36.56-98.77,54.81-61.03,33.81-122.06,67.63-182.88,101.8-31.74,17.85-63.73,26.77-95.75,26.77Zm.57-1833.27c-24.92,0-50.25,8.21-77.78,24.97-186.34,113.46-393.05,184.33-614.36,210.66-84.16,10.02-125.09,55.61-125.09,139.35-.02,39.63-.09,79.24-.16,118.87-.19,102.04-.4,207.55.66,311.23.57,54.36,4.19,101.16,11.11,143.13,44.6,270.82,183.76,481.68,413.62,626.73,66.78,42.16,137.9,80.8,206.67,118.18,37.88,20.59,77.04,41.86,115.23,63.59,47.11,26.82,90.85,27.01,137.7.69,60.91-34.24,122.04-68.1,183.16-101.97,32.91-18.23,65.81-36.46,98.68-54.76,64.67-35.99,122.49-77.61,171.86-123.7,175.34-163.68,272.93-363.97,290.05-595.33,4.54-61.53,4.47-348.74,4.47-348.74.1-57.51.19-115.02-.23-172.53-.42-61.43-41.14-110.17-101.3-121.28-16.22-3.02-32.52-5.06-49.78-7.24-14.02-1.77-28.04-3.53-41.97-5.82-196.83-32.11-383.81-101.44-555.79-206.05-11.51-7.02-23.7-12.41-35.28-15.6-10.5-2.89-20.95-4.37-31.47-4.37Z"/>
  <path class="cls-1" d="m803.34,1149.52c-6.72,0-13.45-2.39-18.82-7.21l-247.03-221.69c-11.58-10.4-12.53-28.21-2.15-39.78,10.38-11.52,28.19-12.51,39.78-2.15l226.53,203.29,400.98-427.2c10.64-11.33,28.45-11.92,39.82-1.25,11.33,10.64,11.9,28.47,1.25,39.82l-419.84,447.29c-5.53,5.89-13.03,8.89-20.53,8.89Z"/>
</svg>