<?xml version="1.0" encoding="UTF-8"?>
<svg id="Layer_1" data-name="Layer 1" xmlns="http://www.w3.org/2000/svg" viewBox="0 0 1746.12 1959.76">
  <defs>
    <style>
      .cls-1 {
        fill: #31353d;
        stroke-width: 0px;
      }
    </style>
  </defs>
  <path class="cls-1" d="m1658.95,1963.1H87.11c-6.71,0-13.35-1.46-19.44-4.29C21.68,1937.64-1.06,1897.65.04,1839.96c6.99-361.8,279.95-678.51,634.98-736.67,39.37-6.47,82.68-10.12,132.4-11.14,83.86-1.93,154.52-2.66,226.61.04,295.6,10.93,519.32,150.53,664.96,414.95,53.11,96.44,81.57,205.57,86.97,333.55,2.96,70.34-35.04,103.04-67.44,118.08-6.13,2.83-12.82,4.33-19.57,4.33Zm-1559.6-92.92h1547.53c4.35-3.73,6.9-10.07,6.26-25.55-4.78-113.37-29.49-209.08-75.52-292.66-130.62-237.16-322.62-357.17-587.02-366.94-69.8-2.61-138.92-1.89-221.15-.04-45.37.99-84.42,4.24-119.44,9.99-311.46,51.01-550.97,329.09-557.1,646.79-.34,17.57,2.23,24.56,6.43,28.42Z"/>
  <path class="cls-1" d="m878.8,914.26h-.26c-122.03-.09-236.88-47.88-323.37-134.67-86.5-86.75-133.99-201.71-133.69-323.78C422.04,204.25,627.15-.37,878.75-.37h.26c122.09.09,236.96,47.88,323.44,134.63,86.47,86.75,133.92,201.71,133.62,323.78-.58,251.6-205.7,456.22-457.27,456.22Zm-.04-821.71c-200.49,0-363.92,163-364.39,363.47-.21,97.21,37.63,188.85,106.6,257.99,68.94,69.18,160.45,107.28,257.62,107.33h.21c200.49.04,363.9-163,364.39-363.56.24-97.17-37.59-188.76-106.51-257.9-68.94-69.18-160.48-107.28-257.71-107.33h-.21Z"/>
</svg>