<?xml version="1.0" encoding="UTF-8"?>
<svg id="Layer_1" data-name="Layer 1" xmlns="http://www.w3.org/2000/svg" viewBox="0 0 1765.73 1959.76">
  <defs>
    <style>
      .cls-1 {
        fill: #31353d;
        stroke-width: 0px;
      }
    </style>
  </defs>
  <path class="cls-1" d="m1190.84,1959.39h-662.87c-168.61,0-306.2-131.96-313.25-300.47l-37.02-888.57c-1.04-25.32,18.63-46.7,43.95-47.76,24.58.51,46.7,18.59,47.76,43.95l37.02,888.57c4.97,119.14,102.29,212.49,221.55,212.49h662.87c115.01,0,212.11-89.8,221.06-204.4l70.26-898.35c1.97-25.23,23.56-45.09,49.32-42.13,25.25,1.95,44.14,24.05,42.17,49.32l-70.26,898.31c-12.66,162.07-149.96,289.04-312.55,289.04Z"/>
  <path class="cls-1" d="m1719.86,559.04H45.87c-25.34,0-45.87-20.53-45.87-45.89s20.53-45.89,45.87-45.89h1673.99c25.34,0,45.87,20.53,45.87,45.89s-20.53,45.89-45.87,45.89Z"/>
  <path class="cls-1" d="m1133.79,365.9c-25.34,0-45.87-20.53-45.87-45.89v-6.52c0-122.27-99.49-221.72-221.76-221.72s-221.76,99.45-221.76,221.72v6.52c0,25.36-20.53,45.89-45.87,45.89s-45.87-20.53-45.87-45.89v-6.52C552.65,140.62,693.27-.02,866.15-.02s313.51,140.64,313.51,313.51v6.52c0,25.36-20.53,45.89-45.87,45.89Z"/>
</svg>