<?xml version="1.0" encoding="UTF-8"?>
<svg id="Layer_1" data-name="Layer 1" xmlns="http://www.w3.org/2000/svg" viewBox="0 0 1746.12 1746.29">
  <defs>
    <style>
      .cls-1 {
        fill: #31353d;
        stroke-width: 0px;
      }
    </style>
  </defs>
  <path class="cls-1" d="m869.68,1745.92c-96.06,0-192.09-.23-288.11-1.39-102.7-1.27-197.2-20.03-280.85-55.77-136.05-58.16-226.63-164.53-269.2-316.09C11.04,1299.77.83,1222.35.29,1135.97c-.39-61.91-.31-123.77-.21-185.64l.08-79.39c0-2.43.19-4.79.6-7.06l-.25-80.24c-.29-67.85-.58-135.74.71-203.59,1.72-89.23,16.27-172.63,43.21-247.89C99.67,177.86,210.59,76.55,374.16,31.01,450.17,9.86,533.46-1.41,629.25-.29h136.76c132.69.04,265.65-.12,398.49,1.24,85.24.81,167.52,14.78,244.52,41.53,156.54,54.46,259.36,165.61,305.63,330.37,20.34,72.44,30.78,149.71,30.99,229.64.48,172.13,1.04,367.27-.73,560.78-.77,87.92-15.32,172.06-43.23,250.09-55,153.84-165.28,255.03-327.82,300.77-76.19,21.5-159.13,31.26-256.96,31.72h-148.76c-32.81.04-65.65.08-98.46.08ZM83.79,878.2l-.06,72.25c-.1,61.67-.17,123.31.19,184.98.5,78.81,9.71,149.01,28.14,214.63,35.87,127.75,108.34,213.39,221.53,261.79,74.56,31.84,156,47.9,248.99,49.02,128.46,1.58,256.96,1.54,385.48,1.35l148.92-.04h1.76c88.15,0,164.2-9.34,232.44-28.56,136.86-38.52,225.74-119.8,271.73-248.43,24.76-69.2,37.67-144.11,38.36-222.69,1.76-193.01,1.2-387.88.73-559.78-.21-72.37-9.59-142.11-27.9-207.25-38.98-138.79-121.59-228.4-252.54-273.95-68.41-23.77-141.7-36.2-217.87-36.9-132.55-1.35-265.03-1.24-397.66-1.24h-138.61c-87.17,0-162.68,9.22-230.82,28.21-137.8,38.36-227.23,119.72-273.4,248.74-24.24,67.66-36.78,140.06-38.34,221.34-1.29,67.19-.98,134.39-.69,201.58l.25,87.69c0,2.47-.21,4.9-.62,7.26Zm-41.2-7.26h.39-.39Z"/>
  <path class="cls-1" d="m465.11,1117.95c-8.59,0-17.23-2.62-24.68-8.1-18.64-13.66-22.67-39.83-9.01-58.47l173.17-236.24c28.68-39.1,72.81-63.76,121.13-67.7,48.46-4.25,95.81,13.2,130.45,47.12l97.63,95.6c17.12,16.71,39.54,25.36,63.62,23.62,23.89-1.51,45.23-12.7,60.09-31.45l225.3-284.52c14.36-18.14,40.64-21.11,58.76-6.83,18.1,14.36,21.15,40.68,6.81,58.78l-225.3,284.52c-29.33,37.05-73.21,60.01-120.4,62.99-46.8,3.36-93.61-14.24-127.4-47.32l-97.64-95.64c-17.27-16.9-40.87-25.74-65.11-23.5-24.12,1.97-46.16,14.28-60.48,33.81l-173.17,236.24c-8.2,11.15-20.9,17.1-33.77,17.1Z"/>
</svg>