<?xml version="1.0" encoding="UTF-8"?>
<svg id="Layer_1" data-name="Layer 1" xmlns="http://www.w3.org/2000/svg" viewBox="0 0 1735.8 1477.32">
  <defs>
    <style>
      .cls-1 {
        fill: #31353d;
        stroke-width: 0px;
      }
    </style>
  </defs>
  <path class="cls-1" d="m856.28,1477.32c-210.45,0-420.91-.1-631.38-.33-123.63-.13-224.36-111.4-224.54-248.02C-.12,902.08-.12,575.15.36,248.28.56,111.66,101.32.43,224.95.3c428.91-.4,857.81-.43,1286.68.13,71.4.13,133.3,34.88,179.03,100.55,24.76,35.54,35.92,75.79,44.3,114.02.56,2.52.83,5.11.83,7.7v1031.93c0,3.29-.45,6.57-1.34,9.76l-1.44,4.78c-.37,1.19-.81,2.39-1.06,3.62-20.89,118.2-113.56,204.08-220.38,204.22-218.42.2-436.85.33-655.29.33Zm-19.31-1405.42c-204,0-407.95.13-611.95.33-84.07.07-152.58,79.11-152.75,176.17-.48,326.8-.48,653.6,0,980.43.15,97.1,68.64,176.14,152.7,176.21,428.82.43,857.65.43,1286.53,0,71.88-.07,134.81-60.96,149.63-144.82.65-3.68,1.64-7.33,2.75-10.95V226.64c-7.65-34.05-16.24-61.59-32.26-84.59-32.6-46.82-71.89-69.62-120.09-69.69-224.84-.33-449.73-.46-674.57-.46Z"/>
  <path class="cls-1" d="m1346.48,429.7H353.82c-19.86,0-35.96-16.09-35.96-35.97s16.09-35.97,35.96-35.97h992.66c19.86,0,35.96,16.09,35.96,35.97s-16.09,35.97-35.96,35.97Z"/>
  <path class="cls-1" d="m867.9,774.65H353.82c-19.86,0-35.96-16.09-35.96-35.97s16.09-35.97,35.96-35.97h514.07c19.86,0,35.96,16.09,35.96,35.97s-16.09,35.97-35.96,35.97Z"/>
  <path class="cls-1" d="m1346.48,1119.57H353.82c-19.86,0-35.96-16.09-35.96-35.97s16.09-35.97,35.96-35.97h992.66c19.86,0,35.96,16.09,35.96,35.97s-16.09,35.97-35.96,35.97Z"/>
</svg>