<?xml version="1.0" encoding="UTF-8"?>
<svg id="Layer_1" data-name="Layer 1" xmlns="http://www.w3.org/2000/svg" viewBox="0 0 1746.12 2296.2">
  <defs>
    <style>
      .cls-1 {
        fill: #31353d;
        stroke-width: 0px;
      }
    </style>
  </defs>
  <path class="cls-1" d="m873.36,2295.84c-30.92,0-61.73-14.38-92.26-43.15-257.06-242.24-451.95-486.39-595.83-746.47-92.63-167.47-149.57-325.59-174.12-483.4C-64.13,538.61,249.35,94.96,724.81,12.88c19.99-3.4,40-6.26,60.03-9.07l25.7-3.63c2.36-.36,4.74-.54,7.12-.54h111.59c2.68,0,5.35.23,7.99.68,13.38,2.18,26.84,4.17,40.27,6.17,30.42,4.54,61.87,9.26,93.17,16.29,334.1,75,606.76,364.79,663.05,704.72,29.99,181.13,5.67,368.11-74.39,571.56-75.23,191.15-186.32,376-349.59,581.72-105.63,133.03-221.37,258.3-344.04,372.28-30.72,28.49-61.59,42.79-92.36,42.79Zm-29.33-2197.84c-15.23,0-30.43,1.08-45.51,3.22h0c-19.03,2.68-38.09,5.35-57.03,8.58C319.52,182.66,41.39,577.08,108.33,1007.76c22.73,146.19,76.02,293.65,162.98,450.82,138.88,251.05,327.7,487.39,577.2,722.51,23.48,22.14,26.32,22.05,50.3-.09,119.01-110.62,231.38-232.22,333.9-361.39,157.08-197.87,263.55-374.68,335.12-556.58,73.37-186.44,95.89-356.35,68.9-519.47-49.93-301.45-291.54-558.4-587.59-624.87-27.79-6.22-56.13-10.44-86.12-14.93-4.63-.68-9.27-1.38-13.9-2.07-16.11-2.43-32.37-3.69-48.66-3.69h-56.43Zm25,1160.81c-94.03,0-184.01-35.48-254.9-100.86-77.2-71.19-122.05-168.29-126.25-273.41-4.06-102,32.89-199.59,104.04-274.82,70.87-74.86,166.99-118.33,270.67-122.41,209.23-8.03,387.21,159.48,396.4,373.78h0c4.29,99.77-31.19,195.83-99.89,270.56-71.17,77.45-168.72,122.46-274.68,126.86-5.13.18-10.28.32-15.38.32Zm8.21-673.46c-3.61,0-7.19.09-10.8.23-77.86,3.04-149.98,35.62-203.09,91.74-52.79,55.81-80.22,128-77.2,203.31,3.15,78.86,36.75,151.63,94.65,205.04,55.4,51.04,125.93,77.95,199.57,74.55,79.67-3.27,152.95-37.07,206.33-95.15,50.89-55.35,77.18-126.32,74.05-199.82h0c-6.69-156.53-132.83-279.9-283.51-279.9Z"/>
</svg>