<?xml version="1.0" encoding="UTF-8"?>
<svg id="Layer_1" data-name="Layer 1" xmlns="http://www.w3.org/2000/svg" viewBox="0 0 1746.12 1471.11">
  <defs>
    <style>
      .cls-1 {
        fill: #31353d;
        stroke-width: 0px;
      }
    </style>
  </defs>
  <path class="cls-1" d="m80.08,1470.74c-1.28,0-2.56-.03-3.84-.09-32.06-1.57-58.92-21.8-73.66-55.56-1.71-3.9-2.58-8.11-2.58-12.35v-72.33c0-1.17.06-2.31.19-3.44l2.83-25.87c2.06-19.24,4.13-38.48,6.69-57.64,35.37-265.48,152.05-493.92,346.81-678.96,166.52-158.23,367.47-257.73,597.27-295.79,29.1-4.81,57.58-7.69,87.74-10.73,4.88-.51,9.78-1,14.72-1.51.11-10.67.17-21.35.21-31.99.14-32.73.28-66.55,2.68-100.16,3.73-52.4,29.53-92.56,72.64-113.11,36.06-17.22,75.93-15.17,112.27,5.78,20.29,11.67,39.58,26.36,55.75,42.41,125.22,124.3,249.95,249.14,374.56,374.12,94.43,94.7,95.82,231.75,3.33,325.88-134.47,136.82-269.65,270.69-384.13,383.6-19.06,18.76-44.06,34.81-70.42,45.2-61.14,24.11-123.67-2.25-148.68-62.62-12.27-29.66-15.88-61.51-17.65-85.96-1.86-25.76-1.45-51.46-1.05-76.31.1-6.03.2-12.07.26-18.1h-.01c-22.56,1.62-44.54,3.22-66.42,5.89-208.15,25.19-398.91,98.08-567.03,216.66-98.82,69.68-187.44,154.36-263.4,251.64l-2.89,3.56c-17.41,30.31-45.84,47.79-76.18,47.79Zm-18.4-75.2c3.56,6.2,9.34,13.09,17.55,13.49,7.91-.57,16.59-5.32,21.73-14.49,2.18-3.93,4.97-7.54,7.91-11.1,81.33-104.06,174.34-192.92,278.13-266.13,176.54-124.5,376.78-201.04,595.15-227.48,22.81-2.79,45.8-4.47,69.38-6.18,10.8-.8,21.75-1.59,32.86-2.5,8.4-.57,17.09,2.22,23.44,8.06,6.35,5.83,9.95,14.06,9.95,22.69v20.35c0,10.67-.17,21.35-.34,32.05-.4,24.56-.77,47.79.91,70.85,1.32,18.3,4.11,45.09,13.11,66.8,11.95,28.83,39.71,40.45,69.05,28.86,18.53-7.32,36.67-18.9,49.74-31.76,114.31-112.71,249.25-246.38,383.43-382.92,67.7-68.88,66.43-169.41-3.02-239.06-124.53-124.87-249.2-249.65-374.35-373.89-12.44-12.35-27.32-23.68-43.04-32.73-18.77-10.79-37.26-11.98-54.93-3.56-23.18,11.04-35.49,31.28-37.67,61.82-2.23,31.57-2.38,64.33-2.52,96.04-.07,13.95-.13,27.89-.36,41.84l-.03,12.21v5.41c.01,15.68-11.74,28.86-27.31,30.65-14.47,1.65-28.69,3.07-42.72,4.5-29.16,2.96-56.7,5.72-83.88,10.22-217.39,36.01-407.42,130.11-564.84,279.68-184.29,175.08-294.69,391.2-328.17,642.36-2.48,18.64-4.48,37.37-6.49,56.07l-2.68,24.42v63.44Z"/>
</svg>