<?xml version="1.0" encoding="UTF-8"?>
<svg id="Layer_1" data-name="Layer 1" xmlns="http://www.w3.org/2000/svg" viewBox="0 0 1746.12 1745.71">
  <defs>
    <style>
      .cls-1 {
        fill: #31353d;
        stroke-width: 0px;
      }
    </style>
  </defs>
  <path class="cls-1" d="m873.39,1745.34h-1.96c-75.61-1.11-133.65-61.81-135.01-141.18-.41-24.26-.31-48.49-.2-73.06l.03-9.89c-4.96-1.4-9.9-2.76-14.85-4.13-27.24-7.53-55.41-15.33-82.54-26.21-218.59-87.69-357.23-248.16-412.07-476.97-.52-2.18-1-3.84-1.4-5.06-.83,0-1.85.03-3.04.12-28.82,1.66-57.2,1.11-83.58.17C59.18,1006.55-.49,947.33,0,871.44c.48-75.77,60.89-133.94,140.5-135.3,11.71-.17,24.16.79,36.63,1.83,17.41,1.45,41.16,3.43,48.82-1.77,3.72-4.01,7.69-24.11,10.06-36.09,2.69-13.67,5.48-27.78,10.37-41.04,85.09-231.11,249.22-376.97,487.85-433.57.93-.23,1.75-.44,2.47-.64-1.76-30.6-1.06-60.79-.17-89.15C738.93,58.51,797.3.02,872.31-.36c75-.99,134.65,57.65,137.17,134.84.87,26.7.64,53.46.42,77.54l-.04,6.52c15.4,5.93,30.7,11.61,45.84,17.22,48.7,18.03,94.7,35.05,138.79,59.25,170.03,93.25,279.22,239.34,324.55,434.16.84,3.61,1.56,6.08,2.12,7.74.8-.03,1.77-.09,2.92-.17,23.57-1.98,46.84-1.4,69.38-.81l14.53.32c77.19,1.54,136.56,58.96,138.1,133.56,1.53,73.91-57.08,135.01-133.44,139.11-31.02,1.63-61.69,1.63-91.11,0-.32-.03-.63-.03-.9-.03-.32,1.05-.7,2.36-1.09,4.01-62.52,253.89-221.75,421.71-473.28,498.84-7.65,2.36-15.5,4.1-23.36,5.82l-6.17,1.37c-2.27.52-4.54,1.02-6.88,1.51l.03,9.22c.09,25.04.17,49.18-.2,73.32-1.25,80.22-60.96,142.37-136.31,142.37ZM225.17,945.82c34.13,0,54.2,17.1,62.91,53.37,49.81,207.81,175.7,353.56,374.23,433.17,23.86,9.57,49.14,16.55,75.9,23.97,12.86,3.55,25.78,7.13,38.73,11.05,13.31,4.01,22.41,16.26,22.41,30.16l-.09,33.83c-.1,24.14-.22,47.93.19,71.72.79,45.29,31.44,78.62,72.89,79.2.36.03.71.03,1.06.03,41.14,0,72.55-34.35,73.28-80.33.38-23.73.28-47.47.19-72.07l-.09-35.02c0-14.89,10.4-27.75,24.96-30.83l37.74-8.09c6.15-1.37,12.33-2.68,18.32-4.51,232.07-71.17,372.9-219.56,430.53-453.64,5.79-23.5,19.04-54.51,66.71-51.86,27.19,1.51,55.51,1.51,84.27,0,42.17-2.27,74.57-35.16,73.76-74.89-.84-40.75-32.94-70.94-76.31-71.78l-14.85-.35c-21.78-.52-42.42-1.05-62.58.61-57.59,5.09-67.8-39.41-71.7-56.08-41.1-176.63-139.83-308.94-293.46-393.2-40.04-21.96-83.91-38.19-130.37-55.41-22.19-8.2-44.73-16.55-67.42-25.71-11.91-4.83-19.71-16.37-19.71-29.23l.17-28.47c.2-23.27.45-49.12-.38-74.92-1.38-42.14-32.95-73.82-73.51-73.82h-.35c-41,.2-71.74,31.73-73.09,74.95-.84,27.31-1.51,56.37.19,84.78,3.07,51.57-37.59,61.22-50.94,64.39-216.79,51.39-365.91,183.96-443.23,393.99-3.17,8.61-5.47,20.24-7.69,31.5-5.48,27.78-11.71,59.25-36.53,76.06-26.09,17.71-59.74,14.86-89.41,12.42-10.35-.87-21-2.09-30.32-1.6-45.26.76-78.28,31.32-78.56,72.65-.26,40.89,33.2,72.83,77.83,74.28,24.9.84,51.55,1.43,77.83-.12,2.21-.12,4.36-.2,6.47-.2Zm3.62,63.26h0Zm-4.68-3.37h0Zm1293.78-268.98h0Zm-644.82,588.07h-1.11c-120.11-.32-233.38-47.93-318.95-134.11-85.86-86.5-132.83-200.63-132.27-321.42,1.13-247.63,204.15-448.84,452.64-448.84h.7c120.47.17,233.87,47.58,319.31,133.53,85.64,86.12,132.5,200.19,131.96,321.16-1.08,248.16-203.89,449.66-452.29,449.69Zm.32-841.32c-213.91,0-388.62,173.06-389.61,386.08-.48,103.92,40.01,202.2,113.99,276.69,73.69,74.23,171.12,115.24,274.35,115.5h.96c213.79.03,388.32-173.35,389.26-386.92.45-104.1-39.9-202.26-113.64-276.43-73.54-73.96-171.09-114.77-274.7-114.92h-.61Z"/>
</svg>