<?xml version="1.0" encoding="UTF-8"?>
<svg id="Layer_1" data-name="Layer 1" xmlns="http://www.w3.org/2000/svg" viewBox="0 0 1746.12 1342.37">
  <defs>
    <style>
      .cls-1 {
        fill: #31353d;
        stroke-width: 0px;
      }
    </style>
  </defs>
  <path class="cls-1" d="m120.14,1342c-36.56,0-88.19-7.03-117.17-66.17-1.96-4.03-2.97-8.43-2.97-12.89V79.28c0-4.27.93-8.49,2.73-12.35C24.11,20.96,61.02-.32,118.09-.37,258.97,1.36,402.37.66,541,.04l22.06-.11c29,.03,48.83,11.87,60.99,37.84,18.41,39.22,37.69,78.03,56.99,116.87l23.83,48.08c24.37,49.54,61.68,72.6,117.43,72.6h.16c209.92-.22,419.82-.14,629.74-.16l231.99.03c48.64,0,61.95,13.14,61.95,61.08v893.37c-.01,73.09-38.52,111.74-111.33,111.74l-341.91-.03c-390.71-.03-781.43-.11-1172.19.65h-.55Zm-61.57-86.38c11.85,20.14,29.27,27.79,61.61,27.79h.41c390.75-.7,781.45-.76,1172.31-.62h341.9c40.42,0,52.75-12.41,52.76-53.14V333.78h-3.38l-232-.03c-209.9-.11-419.77-.11-629.67.16h-.2c-78.44,0-135.62-35.43-170.01-105.33l-23.73-47.89c-19.47-39.22-38.95-78.41-57.54-118.06-1.09-2.32-1.88-3.49-2.26-3.95-.24.05-1.86-.19-5.15-.16h-.28l-22.06.08c-138.91.68-282.52,1.3-423.9-.38-.68-.03-1.34-.03-1.99-.03-33.23,0-47.31,10.6-56.81,28v1169.41Z"/>
  <path class="cls-1" d="m892.76,1181.86c-10.43,0-21-3-37.96-8.92l-5.68-2.11c-69.86-26.65-130.03-66.92-180.35-120.22-44.56-47.14-73.45-98.46-88.32-156.82-11.64-45.68-18.76-94.36-21.18-144.68-2.82-58.79-.66-118.66,6.62-183.09,2.72-24.16,17.85-41.79,41.54-48.33,72.07-19.87,144.09-39.92,216.11-60,13.19-3.68,26.33-7.51,39.48-11.38l15.68-4.59c2.65-.76,5.41-1.16,8.18-1.16h10.68c3.62,0,7.22.68,10.6,2,.23.08,2.5,1,2.73,1.11l265.49,74c25.5,7.05,39.34,23.33,42.29,49.73,6.11,54.49,8.55,107.98,7.3,159.04-1.43,57.14-7.49,107.3-18.51,153.33-7.58,31.62-19.47,72.73-44.35,110.28-55.8,84.27-133.48,145.47-230.89,181.9-17.76,6.65-28.53,9.92-39.43,9.92Zm-268.73-607.95c-6.88,61.35-8.87,117.47-6.23,172.39,2.26,47.06,8.62,90.57,19.42,133.03,12.35,48.46,36.6,91.33,74.14,131.06,44.23,46.84,97.11,82.22,157.2,105.17l3.54,1.38q20.69,7.22,39.58.14c85.59-32,153.74-85.63,202.57-159.36,15.46-23.35,26.64-51.6,36.22-91.6,10.05-41.98,15.6-88.14,16.92-141.14,1.2-48.35-1.14-99.11-6.93-150.93l-264.05-73.44c-1.47-.41-2.97-.89-4.49-1.46h-.84l-11.55,3.38c-13.41,3.92-26.8,7.84-40.23,11.6-71.73,20-143.48,39.98-215.25,59.79Zm238.63,332.77c-.23,0-.47,0-.7-.03-8.01-.19-15.6-3.65-20.99-9.6l-97.48-107.41c-10.87-11.97-9.97-30.49,2-41.38,12-10.84,30.52-9.95,41.38,2.03l76.81,84.63,155.29-155.28c11.46-11.46,29.97-11.46,41.43,0,11.43,11.43,11.43,29.97,0,41.41l-177.04,177.04c-5.5,5.51-12.96,8.6-20.72,8.6Z"/>
</svg>