<?xml version="1.0" encoding="UTF-8"?>
<svg id="Layer_1" data-name="Layer 1" xmlns="http://www.w3.org/2000/svg" viewBox="0 0 1746.12 1468.76">
  <defs>
    <style>
      .cls-1 {
        fill: #31353d;
        stroke-width: 0px;
      }
    </style>
  </defs>
  <path class="cls-1" d="m1154.44,1174.25h-569.84c-16.89,0-30.59-13.69-30.59-30.6s13.69-30.6,30.59-30.6h265.28v-528.44c0-16.91,13.69-30.6,30.59-30.6s30.59,13.69,30.59,30.6v528.44h243.39c16.89,0,30.59,13.69,30.59,30.6s-13.69,30.6-30.59,30.6Z"/>
  <path class="cls-1" d="m1438.53,1468.76c-169.61,0-307.59-138.01-307.59-307.61s137.98-307.61,307.59-307.61,307.59,138.01,307.59,307.61-137.98,307.61-307.59,307.61Zm0-554.01c-135.88,0-246.42,110.54-246.42,246.41s110.54,246.41,246.42,246.41,246.42-110.54,246.42-246.41-110.54-246.41-246.42-246.41Z"/>
  <path class="cls-1" d="m307.59,1468.76C137.98,1468.76,0,1330.75,0,1161.15s137.98-307.61,307.59-307.61,307.59,138.01,307.59,307.61-137.98,307.61-307.59,307.61Zm0-554.01c-135.88,0-246.42,110.54-246.42,246.41s110.54,246.41,246.42,246.41,246.42-110.54,246.42-246.41-110.54-246.41-246.42-246.41Z"/>
  <path class="cls-1" d="m884.53,615.21c-169.61,0-307.59-138.01-307.59-307.61S714.92,0,884.53,0s307.58,138.01,307.58,307.61-137.98,307.61-307.58,307.61Zm0-554.01c-135.88,0-246.42,110.54-246.42,246.41s110.54,246.41,246.42,246.41,246.41-110.54,246.41-246.41-110.54-246.41-246.41-246.41Z"/>
</svg>