<?xml version="1.0" encoding="UTF-8"?>
<svg id="Layer_1" data-name="Layer 1" xmlns="http://www.w3.org/2000/svg" viewBox="0 0 2000 1999.53">
  <defs>
    <style>
      .cls-1 {
        fill: #31353d;
        stroke-width: 0px;
      }
    </style>
  </defs>
  <path class="cls-1" d="m1000.38,1999.53h-2.25c-86.6-1.27-153.08-70.79-154.64-161.71-.47-27.78-.35-55.53-.23-83.69l.03-11.33c-5.68-1.6-11.34-3.16-17.01-4.73-31.2-8.63-63.46-17.56-94.55-30.02-250.37-100.44-409.16-284.24-471.98-546.32-.6-2.5-1.15-4.4-1.6-5.8-.95,0-2.12.03-3.48.13-33.01,1.9-65.51,1.27-95.73.2C67.78,1153.32-.56,1085.49,0,998.57c.55-86.78,69.74-153.41,160.92-154.98,13.41-.2,27.67.9,41.96,2.1,19.94,1.67,47.14,3.93,55.92-2.03,4.26-4.6,8.81-27.62,11.53-41.34,3.08-15.66,6.28-31.81,11.88-47.01,97.46-264.71,285.45-431.78,558.78-496.61,1.07-.27,2-.5,2.83-.73-2.02-35.05-1.22-69.63-.2-102.11C846.37,67.44,913.23.45,999.14.01c85.9-1.13,154.23,66.03,157.11,154.44,1,30.58.73,61.23.48,88.82l-.05,7.46c17.64,6.8,35.16,13.29,52.5,19.72,55.78,20.65,108.47,40.14,158.97,67.86,194.75,106.81,319.82,274.14,371.74,497.28.97,4.13,1.78,6.96,2.43,8.86.92-.03,2.03-.1,3.35-.2,27-2.27,53.65-1.6,79.47-.93l16.64.37c88.42,1.77,156.41,67.53,158.18,152.98,1.75,84.65-65.38,154.64-152.85,159.34-35.53,1.87-70.66,1.87-104.36,0-.37-.03-.72-.03-1.03-.03-.37,1.2-.8,2.7-1.25,4.6-71.61,290.8-253.99,483.02-542.09,571.37-8.76,2.7-17.76,4.7-26.75,6.66l-7.06,1.57c-2.6.6-5.2,1.17-7.88,1.73l.03,10.56c.1,28.68.2,56.33-.23,83.98-1.43,91.88-69.83,163.07-156.13,163.07Zm-742.47-915.77c39.09,0,62.08,19.59,72.06,61.13,57.05,238.03,201.25,404.97,428.64,496.15,27.33,10.96,56.28,18.96,86.93,27.45,14.72,4.06,29.53,8.16,44.36,12.66,15.24,4.6,25.67,18.62,25.67,34.55l-.1,38.74c-.12,27.65-.25,54.9.22,82.15.9,51.87,36.01,90.05,83.49,90.71.42.03.82.03,1.22.03,47.12,0,83.1-39.34,83.93-92.01.43-27.18.32-54.37.22-82.55l-.1-40.11c0-17.06,11.91-31.78,28.58-35.31l43.23-9.26c7.05-1.57,14.13-3.06,20.99-5.16,265.81-81.52,427.12-251.49,493.13-519.6,6.63-26.92,21.8-62.43,76.41-59.4,31.15,1.73,63.58,1.73,96.53,0,48.31-2.6,85.42-40.28,84.48-85.78-.97-46.67-37.73-81.25-87.4-82.22l-17.01-.4c-24.95-.6-48.59-1.2-71.68.7-65.96,5.83-77.66-45.14-82.12-64.23-47.07-202.32-160.16-353.86-336.12-450.37-45.86-25.15-96.11-43.74-149.33-63.46-25.42-9.39-51.24-18.96-77.22-29.45-13.64-5.53-22.57-18.76-22.57-33.48l.2-32.61c.23-26.65.52-56.27-.43-85.82-1.58-48.27-37.74-84.55-84.2-84.55h-.4c-46.96.23-82.17,36.35-83.72,85.85-.97,31.28-1.73,64.56.22,97.11,3.51,59.07-43.06,70.13-58.35,73.76-248.31,58.87-419.11,210.71-507.67,451.27-3.63,9.86-6.26,23.19-8.81,36.08-6.28,31.81-13.41,67.86-41.84,87.12-29.88,20.29-68.43,17.02-102.41,14.23-11.86-1-24.05-2.4-34.73-1.83-51.84.87-89.66,35.88-89.98,83.22-.3,46.84,38.03,83.42,89.15,85.08,28.52.97,59.05,1.63,89.15-.13,2.53-.13,5-.23,7.41-.23Zm4.15,72.46h0Zm-5.36-3.86h0Zm1481.9-308.09h0Zm-738.57,673.58h-1.27c-137.57-.37-267.31-54.9-365.32-153.61-98.34-99.08-152.15-229.8-151.5-368.15,1.3-283.64,233.83-514.1,518.45-514.1h.8c137.99.2,267.88,54.5,365.74,152.95,98.09,98.64,151.76,229.3,151.15,367.85-1.23,284.24-233.53,515.04-518.05,515.07Zm.37-963.64c-245.01,0-445.13,198.22-446.26,442.21-.55,119.03,45.82,231.6,130.56,316.92,84.4,85.02,196,131.99,314.24,132.29h1.1c244.88.03,444.78-198.55,445.86-443.18.52-119.23-45.71-231.67-130.16-316.62-84.23-84.72-195.97-131.46-314.64-131.62h-.7Z"/>
</svg>