<?xml version="1.0" encoding="UTF-8"?>
<svg id="Layer_1" data-name="Layer 1" xmlns="http://www.w3.org/2000/svg" viewBox="0 0 2000 1685.01">
  <defs>
    <style>
      .cls-1 {
        fill: #31353d;
        stroke-width: 0px;
      }
    </style>
  </defs>
  <path class="cls-1" d="m91.72,1685.01c-1.47,0-2.93-.03-4.4-.1-36.73-1.79-67.49-24.97-84.37-63.64-1.96-4.47-2.95-9.29-2.95-14.15v-82.84c0-1.34.07-2.64.21-3.94l3.24-29.63c2.36-22.04,4.73-44.08,7.66-66.02,40.51-304.08,174.16-565.74,397.24-777.68,190.74-181.23,420.9-295.21,684.11-338.8,33.34-5.51,65.95-8.8,100.49-12.29,5.59-.59,11.2-1.14,16.86-1.73.13-12.23.2-24.45.24-36.64.16-37.49.33-76.22,3.06-114.73,4.27-60.02,33.82-106.02,83.2-129.56,41.31-19.72,86.97-17.38,128.6,6.62,23.25,13.37,45.33,30.19,63.85,48.58,143.43,142.37,286.29,285.36,429.02,428.52,108.16,108.47,109.75,265.44,3.81,373.26-154.03,156.72-308.85,310.04-439.98,439.37-21.83,21.48-50.47,39.87-80.66,51.77-70.03,27.61-141.65-2.58-170.29-71.72-14.05-33.97-18.19-70.45-20.21-98.46-2.14-29.5-1.66-58.94-1.21-87.41.11-6.91.23-13.82.29-20.73h-.02c-25.84,1.86-51.02,3.68-76.08,6.75-238.42,28.85-456.91,112.35-649.47,248.16-113.19,79.81-214.7,176.8-301.7,288.23l-3.31,4.08c-19.94,34.72-52.51,54.74-87.26,54.74Zm-21.08-86.13c4.08,7.11,10.69,15,20.1,15.45,9.06-.65,19.01-6.1,24.89-16.59,2.49-4.5,5.69-8.64,9.06-12.71,93.16-119.19,199.69-220.97,318.57-304.83,202.21-142.6,431.56-230.27,681.68-260.55,26.13-3.19,52.46-5.12,79.47-7.07,12.37-.91,24.91-1.83,37.64-2.87,9.62-.65,19.58,2.54,26.85,9.23,7.27,6.68,11.39,16.11,11.39,25.98v23.31c0,12.23-.2,24.45-.39,36.71-.46,28.14-.88,54.74,1.04,81.15,1.52,20.96,4.71,51.64,15.01,76.52,13.69,33.03,45.48,46.33,79.09,33.06,21.22-8.38,42.01-21.65,56.97-36.38,130.93-129.1,285.49-282.2,439.18-438.59,77.54-78.9,76.09-194.05-3.46-273.82-142.63-143.02-285.43-285.95-428.78-428.26-14.25-14.15-31.3-27.12-49.29-37.49-21.5-12.36-42.68-13.73-62.92-4.08-26.55,12.65-40.65,35.83-43.15,70.81-2.56,36.16-2.72,73.68-2.89,110-.08,15.97-.15,31.95-.41,47.92l-.03,13.99.02,6.19c0,17.96-13.46,33.06-31.3,35.11-16.58,1.89-32.86,3.52-48.94,5.15-33.4,3.39-64.94,6.55-96.08,11.7-249,41.24-466.66,149.02-646.96,320.34-211.08,200.53-337.54,448.08-375.88,735.75-2.84,21.35-5.13,42.81-7.43,64.23l-3.06,27.97v72.67Z"/>
</svg>