<?xml version="1.0" encoding="UTF-8"?>
<svg id="Layer_1" data-name="Layer 1" xmlns="http://www.w3.org/2000/svg" viewBox="0 0 2000 1692.12">
  <defs>
    <style>
      .cls-1 {
        fill: #31353d;
        stroke-width: 0px;
      }
    </style>
  </defs>
  <path class="cls-1" d="m986.62,1696.37c-242.49,0-484.97-.11-727.48-.38C116.69,1695.84.63,1567.63.42,1410.22-.14,1033.57-.14,656.87.42,280.26.65,122.84,116.75-5.32,259.19-5.47c494.19-.46,988.38-.5,1482.53.15,82.26.15,153.59,40.19,206.28,115.85,28.52,40.95,41.39,87.33,51.04,131.38.65,2.91.96,5.89.96,8.87v1189c0,3.79-.52,7.57-1.55,11.24l-1.66,5.51c-.42,1.38-.94,2.75-1.22,4.17-24.07,136.19-130.84,235.15-253.92,235.3-251.66.23-503.35.38-755.03.38Zm-22.25-1619.34c-235.05,0-470.04.15-705.09.38-96.87.08-175.81,91.15-176,202.99-.55,376.54-.55,753.08,0,1129.66.17,111.88,79.09,202.95,175.94,203.03,494.09.5,988.19.5,1482.36,0,82.82-.08,155.33-70.24,172.4-166.86.75-4.24,1.89-8.45,3.17-12.62V255.33c-8.81-39.23-18.72-70.96-37.16-97.46-37.57-53.95-82.84-80.22-138.37-80.29-259.06-.38-518.18-.54-777.24-.54Z"/>
  <path class="cls-1" d="m1551.43,489.29H407.68c-22.88,0-41.43-18.54-41.43-41.45s18.54-41.45,41.43-41.45h1143.75c22.88,0,41.43,18.54,41.43,41.45s-18.54,41.45-41.43,41.45Z"/>
  <path class="cls-1" d="m1000,886.74H407.68c-22.88,0-41.43-18.54-41.43-41.45s18.54-41.45,41.43-41.45h592.32c22.88,0,41.43,18.54,41.43,41.45s-18.54,41.45-41.43,41.45Z"/>
  <path class="cls-1" d="m1551.43,1284.16H407.68c-22.88,0-41.43-18.54-41.43-41.45s18.54-41.45,41.43-41.45h1143.75c22.88,0,41.43,18.54,41.43,41.45s-18.54,41.45-41.43,41.45Z"/>
</svg>