<?xml version="1.0" encoding="UTF-8"?>
<svg id="Layer_1" data-name="Layer 1" xmlns="http://www.w3.org/2000/svg" viewBox="0 0 2000 2244.7">
  <defs>
    <style>
      .cls-1 {
        fill: #31353d;
        stroke-width: 0px;
      }
    </style>
  </defs>
  <path class="cls-1" d="m1900.15,2248.95H99.78c-7.68,0-15.29-1.67-22.26-4.91C24.84,2219.79-1.21,2173.98.04,2107.9c8-414.4,320.66-777.16,727.3-843.78,45.09-7.41,94.7-11.59,151.65-12.76,96.05-2.21,176.98-3.04,259.56.05,338.58,12.52,594.82,172.42,761.64,475.28,60.83,110.46,93.43,235.45,99.61,382.05,3.39,80.56-40.13,118.02-77.25,135.25-7.02,3.24-14.68,4.96-22.41,4.96Zm-1786.36-106.44h1772.54c4.98-4.27,7.9-11.54,7.17-29.26-5.47-129.85-33.78-239.48-86.5-335.21-149.61-271.64-369.53-409.1-672.37-420.29-79.95-2.99-159.11-2.16-253.3-.05-51.97,1.13-96.69,4.86-136.8,11.44-356.74,58.42-631.08,376.94-638.1,740.83-.39,20.13,2.55,28.13,7.36,32.55Z"/>
  <path class="cls-1" d="m1006.57,1047.62h-.29c-139.77-.1-271.32-54.84-370.39-154.25-99.07-99.37-153.47-231.04-153.12-370.86C483.4,234.37,718.34,0,1006.52,0h.29c139.84.1,271.42,54.84,370.46,154.2,99.05,99.37,153.39,231.04,153.05,370.86-.66,288.18-235.6,522.56-523.76,522.56Zm-.05-941.18c-229.64,0-416.83,186.7-417.37,416.32-.25,111.35,43.1,216.31,122.1,295.5,78.97,79.24,183.78,122.88,295.08,122.93h.25c229.64.05,416.81-186.7,417.37-416.42.27-111.3-43.06-216.21-122-295.4-78.97-79.24-183.81-122.88-295.18-122.93h-.25Z"/>
</svg>