<?xml version="1.0" encoding="UTF-8"?>
<svg id="Layer_1" data-name="Layer 1" xmlns="http://www.w3.org/2000/svg" viewBox="0 0 2000 2000.2">
  <defs>
    <style>
      .cls-1 {
        fill: #31353d;
        stroke-width: 0px;
      }
    </style>
  </defs>
  <path class="cls-1" d="m996.12,2000.2c-110.03,0-220.01-.27-330-1.59-117.63-1.46-225.87-22.94-321.69-63.88-155.83-66.62-259.58-188.45-308.34-362.05C12.64,1489.17.95,1400.5.33,1301.56c-.44-70.91-.35-141.77-.24-212.63l.09-90.93c0-2.78.22-5.48.69-8.09l-.29-91.9c-.33-77.71-.66-155.47.82-233.19,1.97-102.2,18.63-197.73,49.49-283.94C114.16,204.14,241.21,88.1,428.56,35.94,515.62,11.71,611.02-1.19,720.74.09h156.64c151.98.04,304.27-.13,456.43,1.41,97.63.93,191.88,16.93,280.07,47.57,179.3,62.37,297.07,189.69,350.07,378.41,23.3,82.98,35.25,171.48,35.5,263.03.55,197.16,1.19,420.67-.84,642.32-.88,100.7-17.55,197.07-49.51,286.46-62.99,176.21-189.31,292.11-375.49,344.5-87.26,24.62-182.26,35.81-294.32,36.34h-170.39c-37.58.04-75.19.09-112.77.09ZM95.97,1006.31l-.07,82.75c-.11,70.64-.2,141.24.22,211.88.57,90.27,11.12,170.68,32.23,245.83,41.09,146.32,124.09,244.42,253.74,299.85,85.41,36.47,178.68,54.86,285.2,56.14,147.14,1.81,294.32,1.77,441.53,1.55l170.57-.04h2.01c100.97,0,188.08-10.7,266.23-32.71,156.76-44.12,258.56-137.22,311.23-284.56,28.36-79.26,43.15-165.07,43.94-255.07,2.01-221.08,1.37-444.27.84-641.17-.24-82.89-10.99-162.77-31.96-237.39-44.65-158.97-139.27-261.61-289.26-313.78-78.36-27.23-162.3-41.47-249.54-42.26-151.83-1.55-303.56-1.41-455.48-1.41h-158.77c-99.84,0-186.33,10.57-264.38,32.31-157.84,43.94-260.26,137.13-313.16,284.91-27.76,77.49-42.13,160.42-43.92,253.52-1.48,76.96-1.13,153.93-.8,230.89l.29,100.44c0,2.83-.24,5.61-.71,8.31Zm-47.19-8.31h.44-.44Z"/>
  <path class="cls-1" d="m532.73,1280.92c-9.84,0-19.74-3.01-28.27-9.28-21.35-15.65-25.97-45.62-10.32-66.97l198.35-270.59c32.85-44.78,83.4-73.03,138.74-77.54,55.5-4.86,109.74,15.12,149.42,53.98l111.82,109.5c19.61,19.14,45.29,29.04,72.87,27.05,27.36-1.72,51.81-14.54,68.83-36.03l258.05-325.89c16.44-20.78,46.55-24.18,67.3-7.82,20.73,16.44,24.23,46.59,7.8,67.33l-258.05,325.89c-33.6,42.44-83.86,68.74-137.9,72.14-53.6,3.85-107.22-16.31-145.92-54.2l-111.84-109.54c-19.78-19.36-46.81-29.49-74.58-26.92-27.63,2.25-52.87,16.36-69.27,38.72l-198.35,270.59c-9.39,12.78-23.94,19.58-38.68,19.58Z"/>
</svg>