<?xml version="1.0" encoding="UTF-8"?>
<svg id="Layer_1" data-name="Layer 1" xmlns="http://www.w3.org/2000/svg" viewBox="0 0 1000 775.39">
  <defs>
    <style>
      .folderblack-1 {
        fill: #31353d;
      }

      .folderblack-1, .folderblack-2 {
        stroke-width: 0px;
      }

      .folderblack-2 {
        fill: #fff;
      }
    </style>
  </defs>
  <path class="folderblack-1" d="m0,696.07V79.45c.4-.8,1.19-1.61,1.32-2.55C10.19,29.48,44.35.27,92.28.13c105.79-.13,211.57,0,317.36-.13,8.21,0,14.03,2.81,19.2,9.11,23.3,28.41,47,56.41,70.17,84.81,4.63,5.76,9.27,7.64,16.42,7.64,129.22-.27,258.44-.27,387.67,0,9.66,0,19.73.67,28.99,3.22,42.24,11.52,67.79,45.15,67.79,89.91.13,162.66.27,325.46-.27,488.12,0,13.67-3.18,28.54-8.87,40.87-16.95,36.04-46.87,51.72-85.93,51.72H96.39c-4.9,0-9.8,0-14.56-.53-24.76-2.41-45.02-13.4-61.3-32.69-11.52-13.4-16.42-29.48-20.52-46.09Z"/>
  <g>
    <path class="folderblack-2" d="m500,612.26c-11.27,0-20.41-9.14-20.41-20.41v-306.13c0-11.27,9.14-20.41,20.41-20.41s20.41,9.14,20.41,20.41v306.13c0,11.27-9.14,20.41-20.41,20.41Z"/>
    <path class="folderblack-2" d="m653.06,459.19h-306.13c-11.27,0-20.41-9.14-20.41-20.41s9.14-20.41,20.41-20.41h306.13c11.27,0,20.41,9.14,20.41,20.41s-9.14,20.41-20.41,20.41Z"/>
  </g>
</svg>