<?xml version="1.0" encoding="UTF-8"?>
<svg id="Layer_1" data-name="Layer 1" xmlns="http://www.w3.org/2000/svg" viewBox="0 0 1399.15 1732.65">
  <defs>

  </defs>
  <path  d="m1365.63,590.72c-10.05,7.8-187.49,107.78-187.49,330.1,0,257.15,225.79,348.12,232.54,350.38-1.04,5.55-35.87,124.59-119.04,245.89-74.16,106.74-151.62,213.31-269.45,213.31s-148.16-68.45-284.18-68.45-179.69,70.7-287.47,70.7-182.99-98.77-269.45-220.07C80.92,1370.14,0,1148.86,0,938.84,0,601.98,219.03,423.33,434.59,423.33c114.54,0,210.02,75.2,281.93,75.2s175.19-79.71,305.5-79.71c49.39,0,226.83,4.51,343.62,171.9h0Zm-405.48-314.51c53.89-63.94,92.01-152.66,92.01-241.38,0-12.3-1.04-24.78-3.29-34.83-87.68,3.29-192,58.4-254.9,131.35-49.39,56.14-95.48,144.86-95.48,234.8,0,13.52,2.25,27.03,3.29,31.36,5.55,1.04,14.56,2.25,23.57,2.25,78.67,0,177.61-52.68,234.8-123.55h0Z"/>
</svg>