<?xml version="1.0" encoding="UTF-8"?>
<svg id="Layer_1" data-name="Layer 1" xmlns="http://www.w3.org/2000/svg" xmlns:xlink="http://www.w3.org/1999/xlink" viewBox="0 0 814.39 1000">
  <defs>

    <clipPath id="clippath">
      <rect  fill="currentColor" stroke="currentColor"  width="814.39" height="1000"/>
    </clipPath>
  </defs>
  <g  fill="currentColor" stroke="currentColor" >
    <path  fill="currentColor" stroke="currentColor"  d="m788.37,340.94c-5.9,4.33-108.14,62.13-108.14,190.72,0,148.25,130.16,200.94,134.09,202.12-.79,3.15-20.84,71.96-68.82,141.96-42.86,61.74-87.69,123.08-155.72,123.08s-85.33-39.32-163.98-39.32-103.82,40.9-165.95,40.9-105.78-57.02-155.72-127.02C46.33,791.19-.46,663.39-.46,542.27-.46,348.01,126.16,244.59,250.42,244.59c66.06,0,121.12,43.26,162.8,43.26s101.06-46.01,176.17-46.01c28.31,0,130.95,2.75,198.19,99.1h.79Zm-233.98-181.68c31.07-36.96,53.09-88.08,53.09-139.21,0-7.08-.79-14.16-1.97-20.06-50.73,1.97-110.89,33.82-147.07,75.89-28.31,32.25-55.05,83.76-55.05,135.67,0,7.86,1.18,15.73,1.97,18.09,3.15.79,8.26,1.18,13.76,1.18,45.22,0,102.63-30.28,135.67-71.18l-.39-.39Z"/>
  </g>
</svg>