<?xml version="1.0" encoding="UTF-8"?>
<svg id="Layer_1" data-name="Layer 1" xmlns="http://www.w3.org/2000/svg" viewBox="0 0 1595.19 2000">
  <defs>
    
  </defs>
  <path  fill="currentColor" stroke="currentColor"  d="m1151.71,2000H134.16c-83.96,0-134.09-49.96-134.11-133.64l-.02-69.57c-.03-64.2-.05-128.4.04-192.6.19-126.94,44.19-248.29,123.9-341.69,79.78-93.48,192.74-155.92,318.08-175.83,37.59-5.97,603.45-5.78,627.52-5.74,263.97.13,477.64,181.65,519.63,441.43,4.73,29.28,5.52,57.8,5.68,81.85.41,65.37.34,131.71.27,195.87-.02,22.21-.05,44.42-.05,66.63-.02,83.46-49.62,133.28-132.67,133.29-103.56,0-207.13,0-310.7,0Zm-356.07-130.88h175.47c163.77,0,327.53,0,491.29,0,.62,0,1.21,0,1.76-.02.02-.75.03-1.56.03-2.42,0-22.25.03-44.5.05-66.74.07-63.92.14-130.01-.27-194.9-.12-19.06-.69-41.31-4-61.8-32.02-198.13-188.95-331.32-390.49-331.42-231.42-.1-572.42,1.48-608.32,4.35-194.23,31.5-329.94,190.95-330.24,388.23-.09,64.12-.07,128.24-.04,192.36l.02,69.61c0,.98.01,1.88.04,2.72.97.03,2.03.05,3.19.05h661.48Zm-333.1-653.19c-.07.01-.15.02-.22.03.08-.01.15-.02.22-.03Z"/>
  <path fill="currentColor" stroke="currentColor"   d="m797.44,919.07h-.85c-253.11-.46-458.85-206.82-458.64-460.02.1-122.82,48.11-238.22,135.18-324.93C559.99,47.6,675.3,0,797.95,0c.51,0,1.01,0,1.52,0,253.14.81,458.47,207.63,457.72,461.03-.75,252.73-206.93,458.02-459.75,458.04Zm.52-788.19c-87.8,0-170.31,34.05-232.48,95.97-62.25,62-96.58,144.51-96.65,232.31-.15,181.1,146.99,328.7,328,329.03h.61c180.87,0,328.34-146.8,328.87-327.55.54-181.25-146.27-329.18-327.26-329.76-.36,0-.73,0-1.09,0Z"/>
</svg>