<?xml version="1.0" encoding="UTF-8"?>
<svg id="Layer_1" data-name="Layer 1" xmlns="http://www.w3.org/2000/svg" viewBox="0 0 1992.37 2101.61">
  <defs>
    <style>
      .cls-1 {
        fill: #31353d;
        stroke-width: 0px;
      }
    </style>
  </defs>
  <path class="cls-1" d="m1793.3,2101.61l-42.21-13.41-430.16-153.47c-157.94,54.71-330.34,68.65-498.94,40.24C419.45,1907.24,96.86,1593.2,19.01,1193.69c-57.86-298.13,17.75-601.12,207.65-831.25C416.56,132.03,696.4,0,994.53,0c548.51,0,994.85,446.2,994.85,994.72,0,215.41-167.93,522.34-227.77,625.05l93.11,424.63-61.41,57.21Zm-481.18-170.04c.13.13.26.13.39.13l-.39-.13Zm8.94-133.08c12.62,0,25.12,2.1,36.95,6.44l332.32,118.62-62.33-284.19c-6.05-27.22-1.71-55.5,12.36-79.3,98.89-167.28,214.36-415.82,214.36-565.35,0-474.21-385.84-860.05-860.18-860.05-257.75,0-499.86,114.28-663.98,313.38-164.12,199.1-229.48,461.46-179.24,719.87,67.07,344.81,345.6,615.85,693.04,674.23,151.36,25.38,299.57,12.76,440.02-37.35l.39-.13c11.7-4.08,24.07-6.18,36.3-6.18Z"/>
</svg>