<?xml version="1.0" encoding="UTF-8"?>
<svg id="Layer_1" data-name="Layer 1" xmlns="http://www.w3.org/2000/svg" viewBox="0 0 2000 1983.5">
  <defs>
   
  </defs>
  <path  fill="currentColor" stroke="currentColor" d="m1587.31,1983.5H311.37C139.68,1983.5,0,1843.81,0,1672.12V425.53C0,253.84,139.68,114.16,311.37,114.16h943.86c35.77,0,64.76,28.99,64.76,64.76s-28.99,64.76-64.76,64.76H311.37c-100.27,0-181.85,81.58-181.85,181.85v1246.59c0,100.27,81.58,181.85,181.85,181.85h1275.93c100.27,0,181.85-81.58,181.85-181.85v-926.3c0-35.77,28.99-64.76,64.76-64.76s64.76,28.99,64.76,64.76v926.3c0,171.69-139.68,311.37-311.37,311.37Z"/>
  <path  fill="currentColor" stroke="currentColor"  d="m1734.62,530.76c-146.33,0-265.38-119.05-265.38-265.38S1588.29,0,1734.62,0s265.38,119.05,265.38,265.38-119.05,265.38-265.38,265.38Zm0-401.24c-74.91,0-135.86,60.95-135.86,135.86s60.95,135.86,135.86,135.86,135.86-60.95,135.86-135.86-60.95-135.86-135.86-135.86Z"/>
  <path fill="currentColor" stroke="currentColor"  d="m442.51,1403.46c-11.22,0-22.59-2.92-32.94-9.05-30.77-18.23-40.95-57.95-22.72-88.72l200.57-338.65c32.61-55.05,87.76-90.89,151.31-98.31,63.56-7.42,125.48,14.73,169.9,60.78l154.86,160.55c15.71,16.29,37.62,24.38,60.16,22.21,22.52-2.17,42.5-14.31,54.81-33.29l233.37-360c19.46-30.01,59.55-38.57,89.57-19.11,30.01,19.46,38.57,59.56,19.11,89.57l-233.37,360c-33.93,52.33-88.99,85.78-151.07,91.76-62.09,5.98-122.52-16.33-165.81-61.22l-154.86-160.55c-16.12-16.71-38.59-24.74-61.64-22.05-23.06,2.69-43.07,15.7-54.9,35.67l-200.57,338.65c-12.09,20.42-33.65,31.77-55.78,31.77Z"/>
</svg>