<?xml version="1.0" encoding="UTF-8"?>
<svg id="Layer_1" data-name="Layer 1" xmlns="http://www.w3.org/2000/svg" viewBox="0 0 2000 2000">
  <defs>
    <style>
     
    </style>
  </defs>
  <path   fill="currentColor" stroke="currentColor"  d="m1419.71,687.72c-2.55,9.98-5.02,24.14-9.75,37.5-48.1,135.63-96.72,271.08-144.89,406.69-23.22,65.37-67.16,109.44-132.57,132.68-136.14,48.37-272.19,96.98-408.19,145.72-42.52,15.24-81.27,9.84-113.33-22.58-31.56-31.92-36.63-70.25-21.62-112.12,48.93-136.47,97.59-273.04,146.3-409.58,22.67-63.55,65.45-107.18,129.04-129.97,137.51-49.26,275.04-98.45,412.65-147.43,63.49-22.6,125.51,10.59,139.29,74.19,1.45,6.7,1.72,13.66,3.06,24.9Zm-419.23,489.1c97.83-.3,177.02-80.13,176.73-178.16-.29-97.48-80.72-176.6-178.85-175.95-96.44.64-175.19,80.03-175.29,176.71-.1,97.89,79.72,177.7,177.41,177.4Z"/>
  <path   fill="currentColor" stroke="currentColor"   d="m1000,2000c-267.11,0-518.23-104.02-707.11-292.89C104.02,1518.23,0,1267.11,0,1000S104.02,481.77,292.89,292.89C481.77,104.02,732.89,0,1000,0s518.23,104.02,707.11,292.89c188.87,188.88,292.89,440,292.89,707.11s-104.02,518.23-292.89,707.11c-188.88,188.88-440,292.89-707.11,292.89Zm0-1864c-476.41,0-863.99,387.59-863.99,864s387.59,864,863.99,864,863.99-387.59,863.99-864S1476.41,136,1000,136Z"/>
</svg>