<?xml version="1.0" encoding="UTF-8"?>
<svg id="Layer_1" data-name="Layer 1" xmlns="http://www.w3.org/2000/svg" viewBox="0 0 1000 1000">
  <defs>

  </defs>
  <path fill="currentColor" stroke="currentColor" d="m500,0C223.86,0,0,223.86,0,500s223.86,500,500,500,500-223.86,500-500S776.14,0,500,0Zm225.11,332.16c-1.52,5.58-2.54,13.18-5.07,20.28-25.86,72.52-51.73,145.54-77.59,218.05-12.68,34.99-36.01,58.82-71,70.99-73.02,25.86-146.05,52.23-219.07,78.09-22.82,8.11-43.61,5.07-60.85-12.17-16.73-17.24-19.78-37.53-11.66-60.35,26.37-73.02,52.23-146.55,78.6-219.57,12.17-33.98,34.99-57.3,69.47-69.47,73.53-26.37,147.57-52.74,221.6-79.11,33.98-12.17,67.44,5.58,74.54,39.55,1.02,3.55,1.02,7.1,1.52,13.18l-.51.51Z"/>
  <path fill="currentColor" stroke="currentColor" d="m499.45,404.67c-51.73,0-93.82,43.1-93.82,94.83s42.6,95.33,95.34,95.33l-.51-.51c52.23,0,94.83-43.1,94.83-95.34s-43.1-94.83-95.84-94.32Z"/>
  <path fill="currentColor" stroke="currentColor" d="m500.46,594.33l.51.51c-52.74,0-95.34-42.6-95.34-95.33s42.09-94.83,93.82-94.83c52.74-.51,95.84,42.09,95.84,94.32s-42.59,95.34-94.83,95.34Z"/>
</svg>