<?xml version="1.0" encoding="UTF-8"?>
<svg id="Layer_1" data-name="Layer 1" xmlns="http://www.w3.org/2000/svg" viewBox="0 0 1992.37 1946.9">
  <defs>
    <style>
      .cls-1 {
        fill: #31353d;
        stroke-width: 0px;
      }
    </style>
  </defs>
  <path class="cls-1" d="m1227.13,0c105.87,0,196.26,37.78,268.74,112.36,32.67,33.65,65.76,66.84,99.24,99.7,22.93,22.43,34.08,48.87,34.04,80.68l-.23,278.77c-.07,158.41-.13,316.82-.79,475.16-.1,22.76-7.84,56.21-29.32,75.63-154.41,139.39-276.18,311.83-393.96,478.64-22.53,31.94-45.1,63.82-67.86,95.57l-26.8,37.06c-25.19,34.83-50.41,69.59-74.58,105.15-58.51,86.12-138.47,122-231.38,103.44-89.08-17.71-149.62-77.66-179.99-178.09-17.51-57.85-13.55-119.12,11.81-182.09,29.39-72.94,58.54-146.01,87.7-219.02l9.74-24.4-385.07.07c-36.44.07-72.94.13-109.38-.13-131.42-.92-231.58-98.46-238.2-231.94-5.25-106.33,13.58-204,57.59-298.58,69.27-148.64,136.57-301.53,201.7-449.32l76.29-172.77C390.25,64.81,488.81.66,621.41.26c110.59-.26,221.25-.26,331.9-.2l273.2-.07h.62Zm-375.88,1872.44c48.47,0,88.06-24.6,122.76-75.63,24.6-36.14,50.24-71.56,75.86-106.92l26.63-36.86c22.63-31.55,45.06-63.3,67.5-95.05,120.13-170.15,244.34-346.01,404.88-490.97,1.28-1.71,4.72-11.02,4.76-20.6.66-158.34.72-316.62.79-474.9l.23-278.9c0-11.61-3.15-19.02-11.71-27.35-33.91-33.32-67.46-66.91-100.52-100.95-58.71-60.41-129.12-89.8-215.28-89.8h-.49l-273.36.07c-110.53.07-221.08,0-331.67.2-103.9.26-174.91,46.57-217.08,141.42l-76.19,172.51c-65.27,148.18-132.76,301.34-202.32,450.76-38.8,83.3-55.36,169.43-50.7,263.42,4.59,92.68,73.66,160.44,164.28,161.1,36.21.2,72.45.07,108.72.13l491.92-.07-20.83,58.77c-2.33,6.69-4.3,12.33-6.53,17.91l-19.91,49.85c-29.19,73.07-58.38,146.21-87.76,219.21-19.12,47.56-22.27,90.91-9.64,132.7,22.4,74.12,61.56,114.33,123.25,126.6,11.25,2.23,22.04,3.35,32.44,3.35Z"/>
  <path class="cls-1" d="m1774.45,75.96c63.56,0,124.69,27.81,167.43,79.04,33.03,39.55,49.82,83.63,49.88,130.86l.26,142.99c.39,186.75.75,373.43-.72,560.17-.92,115.31-98.72,208.52-218.33,208.52h-1.84c-117.28-.98-214.03-95.24-215.64-210.23-1.18-81.93-.89-163.85-.62-245.78l.23-106.13h-.13l-.13-103.57c-.16-80.29-.3-160.57.36-240.79.79-91.83,57.62-171.2,144.77-202.09,24.56-8.72,49.72-12.99,74.48-12.99Zm-1.48,1047.07c78.81,0,143.22-60.15,143.81-134.66,1.48-186.42,1.12-372.9.72-559.32l-.26-143.06c-.07-29.78-10.69-57-32.57-83.24-39.23-46.97-101.97-64.41-159.79-43.62-57.3,20.33-94.65,72.35-95.18,132.56-.66,79.96-.52,159.98-.36,239.94l.13,103.77-.16,113.74c-.23,79.04-.46,158.08.69,237.12,1.05,74.78,64.61,136.11,141.72,136.76h1.25Z"/>
</svg>