<?xml version="1.0" encoding="UTF-8"?>
<svg id="Layer_1" data-name="Layer 1" xmlns="http://www.w3.org/2000/svg" viewBox="0 0 2000 1959.48">
  <defs>
    <style>
      .cls-1 {
        fill: #31353d;
        stroke-width: 0px;
      }
    </style>
  </defs>
  <path class="cls-1" d="m1584.62,1959.48H291.87C130.93,1959.48,0,1828.53,0,1667.58V468.99C0,308.04,130.93,177.1,291.87,177.1h425.14c19.95,0,36.11,16.2,36.11,36.13s-16.16,36.13-36.11,36.13h-425.14c-121.11,0-219.65,98.49-219.65,219.63v1198.59c0,121.14,98.54,219.63,219.65,219.63h1292.75c121.11,0,219.64-98.49,219.64-219.63v-403.55c0-19.93,16.16-36.13,36.11-36.13s36.11,16.2,36.11,36.13v403.55c0,160.95-130.92,291.89-291.85,291.89Z"/>
  <g>
    <path class="cls-1" d="m602.68,1424.35c-9.35,0-18.48-3.68-25.31-10.39-9.05-8.9-12.76-21.85-9.79-34.22l102.45-425.29c1.45-6.45,4.68-12.58,9.7-17.59.07-.05.12-.11.17-.16L1544.62,78.02c104.03-104.03,273.25-104.03,377.26,0,50.88,50.9,78.62,118.53,78.12,190.53-.51,71.95-29.21,139.21-80.81,189.41l-871.7,847.38s-.07.05-.09.05h0l-.16.16h-.01c-.03.11.05.43-.11.11-.01,0-.01.05-.01.05-4.74,4.48-10.39,7.41-16.33,8.85l-419.03,108.61c-3,.75-6.04,1.17-9.06,1.17Zm122.6-390.86l-73.4,304.68,300.23-77.86-226.83-226.82Zm31.14-70.99l266.25,266.21,846.18-822.55c37.63-36.56,58.56-85.64,58.93-138.14.36-52.5-19.87-101.85-56.97-138.94-75.84-75.78-199.25-75.78-275.12,0l-62.94,62.99-776.33,770.42Z"/>
    <path class="cls-1" d="m1731.54,607.29c-9.13,0-18.25-3.46-25.27-10.34l-318.02-311.67c-14.24-13.96-14.47-36.83-.52-51.06,13.96-14.28,36.84-14.5,51.07-.53l318.02,311.67c14.24,13.96,14.47,36.83.52,51.06-7.07,7.25-16.43,10.87-25.79,10.87Z"/>
  </g>
</svg>