<?xml version="1.0" encoding="UTF-8"?>
<svg id="Layer_1" data-name="Layer 1" xmlns="http://www.w3.org/2000/svg" viewBox="0 0 1744.23 1779.65">
  <defs>
 
  </defs>
  <path d="m1728.05,728.11h-838.14v344.24h478.93c-20.63,111.24-83.32,205.49-177.57,268.59h0s0,0,0,0c-79.68,53.39-181.62,84.94-301.35,84.94-231.79,0-427.97-156.54-497.95-366.88-17.8-53.4-27.91-110.43-27.91-169.08s10.11-115.69,27.91-169.08c69.98-210.34,266.16-366.88,497.95-366.88,130.65,0,247.96,44.9,340.19,133.08l255.24-255.24C1331.23,88.18,1129.78,0,889.91,0,542.04,0,241.09,199.42,94.65,490.26,34.39,610.4,0,746.32,0,889.91s34.39,279.51,94.65,399.65c146.44,290.84,447.39,490.26,795.26,490.26,240.28,0,441.72-79.69,588.95-215.6h0c168.27-154.92,265.35-383.07,265.35-654.09,0-63.1-5.66-123.78-16.18-182.03Z"/>
</svg>