<?xml version="1.0" encoding="UTF-8"?>
<svg id="Layer_1" data-name="Layer 1" xmlns="http://www.w3.org/2000/svg" xmlns:xlink="http://www.w3.org/1999/xlink" viewBox="0 0 980.09 1000">
  <defs>

    <clipPath id="clippath">
      <rect  fill="currentColor" stroke="currentColor"  width="980.09" height="1000"/>
    </clipPath>
  </defs>
  <g  fill="currentColor" stroke="currentColor" >
    <g>
      <path  fill="currentColor" stroke="currentColor"  d="m980.13,511.31c0-35.29-3.17-69.68-9.05-102.26h-471.04v193.21h269.23c-11.76,62.44-46.61,115.38-99.55,151.13v125.34h161.54c94.57-86.88,148.87-215.38,148.87-367.42Z"/>
      <path  fill="currentColor" stroke="currentColor"  d="m499.99,1000c134.84,0,247.96-44.8,330.77-121.27l-161.54-125.34c-44.8,29.86-102.26,47.51-169.23,47.51-130.32,0-240.27-87.78-279.64-206.33H53.38v129.41c82.35,163.35,251.58,275.57,446.61,275.57v.45Z"/>
      <path  fill="currentColor" stroke="currentColor"  d="m220.36,595.01c-9.95-29.86-15.84-61.99-15.84-95.02s5.88-65.16,15.84-95.02v-129.41H53.39C19.46,342.98,0,419.45,0,499.99s19.46,157.01,53.39,224.43l166.97-129.41Z"/>
      <path  fill="currentColor" stroke="currentColor"  d="m499.99,198.65c73.3,0,139.37,25.34,190.95,74.66l143.44-143.44C747.95,49.33,634.83-.44,499.99-.44,304.51.01,135.28,112.23,53.38,275.58l166.97,129.41c39.37-118.1,149.32-206.33,279.64-206.33Z"/>
    </g>
  </g>
</svg>