<?xml version="1.0" encoding="UTF-8"?>
<svg id="Layer_1" data-name="Layer 1" xmlns="http://www.w3.org/2000/svg" viewBox="0 0 1989.65 1655.37">
  <defs>
    <style>
      .cls-1 {
        fill: #31353d;
      }

      .cls-1, .cls-2 {
        stroke-width: 0px;
      }

      .cls-2 {
        fill: #ff6b6b;
      }
    </style>
  </defs>
  <path class="cls-2" d="m994.86,284.89c17.75-20.34,33.31-39.15,49.9-57.01,89.7-96.61,197.98-160.8,329.84-176.84,226.67-27.56,441.2,96.39,527.18,315.85,63.34,161.67,50.36,320.03-27.45,474.18-66.15,131.05-159.25,241.47-263.05,343.55-149.94,147.44-316.57,273.95-494.11,385.8-78.7,49.58-164.36,50.66-242.84.82-217.22-137.97-420.39-293.91-591.45-488.04-90.64-102.87-167.87-214.44-209.7-346.98C.21,505.07,90.46,235.11,307.92,111.46,481.79,12.61,701.35,28.02,866.36,156.87c40.73,31.8,74.61,72.38,111.53,109.04,5.45,5.41,10.27,11.45,16.97,18.99Z"/>
  <path class="cls-1" d="m994.5,1655.37c-49.42,0-98.63-14.78-145.36-44.46-253.71-161.07-444.87-318.84-601.49-496.56-111.04-125.92-180.72-241.61-219.28-363.92C-54.45,488.05,53.39,202.09,284.66,70.58c192.61-109.38,432.15-90.05,610.7,49.31,30.81,23.99,57.17,51.8,82.81,78.68,5.07,5.38,10.13,10.75,15.3,16.13,5.58-6.41,11.06-12.61,16.75-18.82,102.87-110.62,223.62-175.03,358.75-191.47,252.05-31.53,483.64,108.04,576.58,345.31,66.48,169.96,56.65,342.41-29.26,512.58-60.48,119.62-146.91,232.72-272.01,355.85-144.22,141.84-308.4,270.04-502.14,392.04-47.76,30.09-97.8,45.18-147.63,45.18ZM551.29,94.16c-75.88,0-151.67,19.23-220.11,58.1C141.26,260.3,49.56,505.32,117.9,722.12c34.63,109.38,98.22,214.32,200.26,330.01,150.63,170.9,335.28,323.28,581.44,479.4,62.24,39.6,128.61,39.18,192.5-.83,187.85-118.38,346.96-242.54,486.22-379.53,117.65-115.79,198.4-221.04,254.02-331.25,74.44-147.32,82.81-289.89,25.74-435.87-77.13-196.64-269.52-310.36-477.74-286.38-114.14,13.85-212.66,66.89-301.16,162.11-11.17,12.1-21.92,24.61-33.19,37.84l-50.66,58.41-50.66-56.97c-11.68-11.48-23.16-23.57-34.74-35.77-24.19-25.54-47.14-49.62-72.37-69.27-84.57-66.17-185.58-99.87-286.27-99.87Z"/>
</svg>