<?xml version="1.0" encoding="UTF-8"?>
<svg id="Layer_1" data-name="Layer 1" xmlns="http://www.w3.org/2000/svg" viewBox="0 0 1992.37 1988.34">
  <defs>
    <style>
      .cls-1 {
        fill: #31353d;
        stroke-width: 0px;
      }
    </style>
  </defs>
  <path class="cls-1" d="m994.42,1988.34c-28.56,0-53.74-13.25-70.57-37.67-8.76-12.69-13.38-26.49-17.11-39.53-9.04-31.11-17.8-62.5-26.56-93.89-16.9-60.57-33.8-121.14-53.05-180.95-78.02-242.27-241.58-403.35-486.13-478.75-59.53-18.35-119.48-35.11-179.5-51.81l-86.85-24.49C27.33,1067.74-.61,1034.08.01,991.1c.34-24.77,10.62-69.12,75.61-88.02,32.56-9.45,65.33-18.35,98.03-27.18,70.92-19.18,144.25-39.05,213.23-64.5,227.99-83.95,378.79-248.07,448.26-487.86,14.56-50.22,28.84-100.44,43.05-150.66l28.7-100.72C919.71,27.73,953.86.14,995.94,0l.14,39.18-.14-39.18h.28c42.29,0,76.5,27.52,89.27,71.88l24.49,86.58c16.49,58.64,32.97,117.27,50.7,175.43,78.64,257.66,243.72,420.39,504.69,497.38,51.05,15.04,102.3,29.53,153.56,44.08l97.48,27.66c64.78,18.56,75.4,62.84,75.95,87.54.48,25.73-8.83,71.61-76.57,91.2-31.59,9.11-63.33,17.87-95.06,26.56-63.74,17.52-129.62,35.6-192.67,56.98-240.48,81.54-398.94,248.69-471.03,496.62-18.63,64.09-36.77,128.24-54.91,192.33l-18,63.53c-11.11,39.05-37.67,63.67-74.92,69.4-4.97.83-9.93,1.17-14.76,1.17Zm2-1909.97c-2.62-1.72-9.66-.34-14.21,15.45l-28.63,100.44c-14.28,50.36-28.56,100.79-43.12,151.08-76.85,265.04-243.86,446.54-496.48,539.6-72.23,26.63-147.28,46.98-219.85,66.64-32.28,8.69-64.57,17.45-96.65,26.77-18.97,5.52-19.04,10.97-19.11,13.87-.07,2.55-.14,8.62,17.8,13.73l86.44,24.28c60.64,16.97,121.27,33.94,181.43,52.43,270.49,83.4,451.37,261.59,537.73,529.66,19.52,60.78,36.7,122.31,53.88,183.91,8.69,31.11,17.38,62.22,26.42,93.27,1.17,4.28,3.66,12.9,6.28,16.69,2.35,3.45,3.86,4.28,8.9,3.59,4.35-.69,8-1.24,11.52-13.45l17.94-63.4c18.21-64.29,36.35-128.66,55.12-192.88,79.61-274.01,254.9-458.68,521.11-548.98,65.19-22.08,132.24-40.49,197.02-58.36,31.39-8.62,62.78-17.18,94.03-26.28,20.14-5.79,20.07-11.31,20.01-14.21-.07-3.31-.21-8.42-19.18-13.87l-97.2-27.59c-51.53-14.56-103.06-29.18-154.46-44.29-284.15-83.89-471.72-268.83-557.39-549.67-17.94-58.77-34.56-117.96-51.26-177.15l-24.35-86.09c-4.28-14.83-10.76-15.18-13.73-15.18Z"/>
</svg>