<?xml version="1.0" encoding="UTF-8"?>
<svg id="Layer_1" data-name="Layer 1" xmlns="http://www.w3.org/2000/svg" viewBox="0 0 2000 1099.8">
  <defs>
    <style>
      .clsv-1 {
        fill: #31353d;
      }

      .clsv-1, .clsv-2 {
        stroke-width: 0px;
      }

      .clsv-2 {
        fill: #fff;
      }
    </style>
  </defs>
  <g>
    <g>
      <g>
        <path class="clsv-2" d="m1078.35,391.9v371.38c0,55.18-44.73,99.91-99.91,99.91H104.66c-55.18,0-99.91-44.73-99.91-99.91V104.66C4.75,49.48,49.48,4.75,104.66,4.75h873.78c55.18,0,99.91,44.73,99.91,99.91v287.24Z"/>
        <path class="clsv-1" d="m978.44,867.94H104.66c-57.71,0-104.66-46.95-104.66-104.66V104.66C0,46.95,46.95,0,104.66,0h873.78C1036.15,0,1083.1,46.95,1083.1,104.66v658.61c0,57.72-46.95,104.66-104.66,104.66ZM104.66,9.5C52.19,9.5,9.5,52.19,9.5,104.66v658.61c0,52.47,42.69,95.16,95.16,95.16h873.78c52.47,0,95.15-42.69,95.15-95.16V104.66c0-52.47-42.68-95.16-95.15-95.16H104.66Z"/>
      </g>
      <path class="clsv-1" d="m409.91,608.33c-.82,0-1.64-.21-2.38-.64-1.47-.85-2.38-2.42-2.38-4.12V241.05c0-1.69.91-3.27,2.38-4.12,1.47-.85,3.28-.85,4.75,0l313.95,181.26c1.47.85,2.38,2.42,2.38,4.12s-.91,3.27-2.38,4.12l-313.95,181.25c-.73.42-1.55.64-2.38.64Zm4.75-359.04v346.05l299.69-173.02-299.69-173.03Z"/>
    </g>
    <g>
      <g>
        <path class="clsv-2" d="m878.57,241.06c-54.89,0-99.39,44.5-99.39,99.39v655.22c0,54.89,44.5,99.39,99.39,99.39h869.27c54.89,0,99.39-44.5,99.39-99.39V340.45c0-54.89-44.5-99.39-99.39-99.39h-869.27Z"/>
        <path class="clsv-1" d="m1747.84,1099.8h-869.27c-57.42,0-104.14-46.72-104.14-104.14V340.45c0-57.43,46.72-104.15,104.14-104.15h869.27c57.42,0,104.14,46.72,104.14,104.15v655.21c0,57.42-46.72,104.14-104.14,104.14ZM878.57,245.81c-52.18,0-94.64,42.46-94.64,94.64v655.21c0,52.18,42.45,94.63,94.64,94.63h869.27c52.18,0,94.64-42.45,94.64-94.63V340.45c0-52.18-42.45-94.64-94.64-94.64h-869.27Z"/>
      </g>
      <path class="clsv-1" d="m1046.42,595.2c-48.17,0-87.35-39.18-87.35-87.35s39.18-87.35,87.35-87.35,87.35,39.18,87.35,87.35-39.18,87.35-87.35,87.35Zm0-165.19c-42.92,0-77.85,34.92-77.85,77.84s34.92,77.84,77.85,77.84,77.84-34.92,77.84-77.84-34.92-77.84-77.84-77.84Z"/>
      <path class="clsv-1" d="m785.51,1035.35c-1.2,0-2.39-.45-3.32-1.35-1.88-1.84-1.92-4.85-.09-6.73l263-269.75c13.8-14.15,33.06-21.63,52.75-20.49,19.73,1.12,37.99,10.73,50.08,26.36l37.84,48.86c11.23,14.51,28.12,22.79,46.43,22.79.23,0,.46,0,.69,0,18.57-.21,35.55-8.9,46.58-23.84l178.8-242.18c12.4-16.8,31.47-26.88,52.32-27.67,20.84-.7,40.65,7.83,54.28,23.64l285.9,331.66c1.72,1.98,1.49,4.99-.5,6.7-1.99,1.7-4.99,1.49-6.71-.5l-285.9-331.66c-11.73-13.61-28.75-21.06-46.72-20.35-17.95.69-34.36,9.36-45.03,23.81l-178.8,242.18c-12.82,17.37-32.55,27.46-54.13,27.71h-.8c-21.27,0-40.89-9.62-53.94-26.47l-37.84-48.86c-10.42-13.46-26.13-21.73-43.11-22.69-17-.98-33.53,5.47-45.4,17.65l-263,269.75c-.93.95-2.17,1.43-3.41,1.43Z"/>
    </g>
  </g>
  <g>
    <g>
      <circle class="clsv-2" cx="1810.42" cy="224.13" r="184.83"/>
      <path class="clsv-1" d="m1810.41,413.71c-104.54,0-189.58-85.04-189.58-189.58s85.04-189.58,189.58-189.58,189.59,85.04,189.59,189.58-85.05,189.58-189.59,189.58Zm0-369.66c-99.29,0-180.08,80.78-180.08,180.08s80.78,180.08,180.08,180.08,180.08-80.78,180.08-180.08-80.78-180.08-180.08-180.08Z"/>
    </g>
    <g>
      <g>
        <line class="clsv-2" x1="1810.42" y1="142.4" x2="1750.96" y2="195.9"/>
        <path class="clsv-1" d="m1750.97,200.65c-1.3,0-2.6-.53-3.53-1.58-1.76-1.95-1.6-4.96.35-6.71l59.45-53.51c1.96-1.76,4.96-1.59,6.71.36,1.76,1.95,1.6,4.96-.35,6.71l-59.45,53.51c-.91.82-2.05,1.22-3.18,1.22Z"/>
      </g>
      <g>
        <line class="clsv-2" x1="1810.42" y1="142.4" x2="1869.87" y2="195.9"/>
        <path class="clsv-1" d="m1869.87,200.65c-1.14,0-2.27-.4-3.18-1.22l-59.45-53.51c-1.95-1.75-2.11-4.76-.35-6.71,1.75-1.96,4.75-2.13,6.71-.36l59.45,53.51c1.95,1.75,2.11,4.76.35,6.71-.94,1.04-2.23,1.58-3.53,1.58Z"/>
      </g>
      <path class="clsv-1" d="m1810.41,310.61c-2.63,0-4.75-2.13-4.75-4.75v-163.46c0-2.63,2.13-4.75,4.75-4.75s4.75,2.13,4.75,4.75v163.46c0,2.63-2.13,4.75-4.75,4.75Z"/>
    </g>
  </g>
</svg>