<?xml version="1.0" encoding="UTF-8"?>
<svg id="Layer_1" data-name="Layer 1" xmlns="http://www.w3.org/2000/svg" viewBox="0 0 2000 1190.22">
  <defs>
    <style>
      .cls-1 {
        fill: #31353d;
      }

      .cls-1, .cls-2 {
        stroke-width: 0px;
      }

      .cls-2 {
        fill: #fff;
      }
    </style>
  </defs>
  <g>
    <g>
      <path class="cls-2" d="m1164.04,425.02v399.82c0,59.4-48.16,107.56-107.56,107.56H115.78c-59.4,0-107.56-48.16-107.56-107.56V115.78C8.22,56.38,56.38,8.22,115.78,8.22h940.7c59.4,0,107.56,48.16,107.56,107.56v309.24Z"/>
      <path class="cls-1" d="m1056.49,940.63H115.78c-63.84,0-115.78-51.94-115.78-115.78V115.78C0,51.94,51.94,0,115.78,0h940.71c63.84,0,115.78,51.94,115.78,115.78v709.06c0,63.84-51.94,115.78-115.78,115.78ZM115.78,16.45c-54.77,0-99.33,44.56-99.33,99.33v709.06c0,54.77,44.55,99.33,99.33,99.33h940.71c54.77,0,99.33-44.56,99.33-99.33V115.78c0-54.77-44.56-99.33-99.33-99.33H115.78Z"/>
    </g>
    <path class="cls-1" d="m444.41,661.13c-1.42,0-2.84-.37-4.12-1.1-2.54-1.47-4.11-4.19-4.11-7.13v-390.28c0-2.94,1.57-5.66,4.11-7.13,2.56-1.46,5.68-1.46,8.24,0l338,195.15c2.54,1.47,4.11,4.19,4.11,7.13s-1.57,5.66-4.12,7.13l-337.99,195.14c-1.28.73-2.7,1.1-4.12,1.1Zm8.23-384.25v361.78l313.32-180.88-313.32-180.89Z"/>
  </g>
  <g>
    <g>
      <path class="cls-2" d="m948.96,262.62c-59.1,0-107,47.91-107,107v705.4c0,59.1,47.91,107,107,107h935.85c59.1,0,107-47.91,107-107V369.63c0-59.1-47.91-107-107-107h-935.85Z"/>
      <path class="cls-1" d="m1884.81,1190.22h-935.84c-63.52,0-115.19-51.68-115.19-115.19V369.62c0-63.51,51.68-115.18,115.19-115.18h935.84c63.52,0,115.19,51.68,115.19,115.18v705.4c0,63.52-51.68,115.19-115.19,115.19ZM948.97,270.81c-54.49,0-98.82,44.33-98.82,98.81v705.4c0,54.49,44.33,98.82,98.82,98.82h935.84c54.49,0,98.82-44.33,98.82-98.82V369.62c0-54.48-44.33-98.81-98.82-98.81h-935.84Z"/>
    </g>
    <path class="cls-1" d="m1129.67,646.97c-53.54,0-97.11-43.57-97.11-97.11s43.57-97.11,97.11-97.11,97.11,43.57,97.11,97.11-43.57,97.11-97.11,97.11Zm0-177.85c-44.52,0-80.74,36.22-80.74,80.74s36.22,80.74,80.74,80.74,80.74-36.22,80.74-80.74-36.22-80.74-80.74-80.74Z"/>
    <path class="cls-1" d="m848.78,1120.83c-2.06,0-4.12-.78-5.72-2.33-3.23-3.15-3.3-8.34-.14-11.57l283.15-290.42c15.47-15.86,37.18-24.1,59.16-22.98,22.12,1.27,42.59,12.04,56.15,29.57l40.74,52.62c11.65,15.04,28.99,23.58,48.28,23.33,19.02-.22,36.42-9.13,47.72-24.43l192.5-260.73c13.9-18.83,35.29-30.14,58.68-31.03,23.51-.9,45.59,8.79,60.87,26.51l307.79,357.07c2.95,3.43,2.57,8.6-.85,11.54-3.42,2.94-8.59,2.56-11.54-.85l-307.79-357.07c-12.02-13.94-29.37-21.34-47.86-20.85-18.39.7-35.2,9.59-46.13,24.39l-192.5,260.73c-14.38,19.47-36.5,30.8-60.7,31.08-.3,0-.61,0-.91,0-23.86,0-45.86-10.78-60.49-29.69l-40.74-52.62c-10.66-13.77-26.76-22.24-44.16-23.24-17.33-.93-34.34,5.6-46.51,18.07l-283.15,290.42c-1.6,1.64-3.73,2.47-5.86,2.47Z"/>
  </g>
</svg>