<?xml version="1.0" encoding="UTF-8"?>
<svg id="Layer_1" data-name="Layer 1" xmlns="http://www.w3.org/2000/svg" viewBox="0 0 2000 2003.04">
  <defs>
    <style>
      .cls-1 {
        fill: #fff;
        stroke-width: 0px;
      }
    </style>
  </defs>
  <path class="cls-1" d="m1616.08,2003.04H383.93c-212.52,0-385.43-172.89-385.43-385.41V385.48C-1.5,172.95,171.41,0,383.93,0h1232.15c212.52,0,385.43,172.95,385.43,385.48v1232.15c0,212.52-172.9,385.41-385.43,385.41ZM383.93,110.14c-151.83,0-275.36,123.51-275.36,275.34v1232.15c0,151.83,123.53,275.27,275.36,275.27h1232.15c151.83,0,275.36-123.44,275.36-275.27V385.48c0-151.83-123.53-275.34-275.36-275.34H383.93Z"/>
  <path class="cls-1" d="m650.84,837.69c-151.85,0-275.39-123.58-275.39-275.41s123.54-275.41,275.39-275.41,275.38,123.58,275.38,275.41-123.53,275.41-275.38,275.41Zm0-440.69c-91.16,0-165.33,74.13-165.33,165.27s74.17,165.27,165.33,165.27,165.31-74.13,165.31-165.27-74.15-165.27-165.31-165.27Z"/>
  <path class="cls-1" d="m53.57,1554.47c-16.51,0-32.83-7.41-43.68-21.53-18.52-24.14-13.99-58.63,10.12-77.15l428.98-329.59c60.4-46.36,144.8-46.56,205.2-.34l139.63,106.5c22.99,17.49,54.9,15.84,75.88-4.05l464.14-438.7c33.6-31.68,77.92-48.14,123.65-45.95,46.12,2.13,88.31,22.29,118.85,56.92l411.42,466.27c20.11,22.77,17.93,57.54-4.85,77.7-22.77,20.02-57.57,17.9-77.68-4.87l-411.44-466.27c-10.61-12.07-25.29-19.06-41.3-19.82-16.29-.21-31.36,5.01-43.05,15.98l-464.09,438.7c-60.37,57.13-152.18,62.06-218.29,11.59l-139.64-106.5c-21.04-16.05-50.39-16.05-71.39.14l-428.94,329.52c-10,7.68-21.79,11.45-33.5,11.45Z"/>
</svg>