<?xml version="1.0" encoding="UTF-8"?>
<svg id="Layer_1" data-name="Layer 1" xmlns="http://www.w3.org/2000/svg" viewBox="0 0 1000 1000">
  <defs>
    <style>
      .invvo-1 {
        fill: #31353d;
        stroke-width: 0px;
      }
    </style>
  </defs>
  <path class="invvo-1" d="m500,0C223.86,0,0,223.86,0,500s223.86,500,500,500,500-223.86,500-500S776.14,0,500,0Zm410.58,456.42h-208.81c-5.31-24.69-15.02-47.73-28.29-68.27l147.63-147.64c24.31,29.99,44.2,63.08,59.32,98.82,15.85,37.48,25.94,76.71,30.15,117.09Zm-410.58,161.18c-31.41,0-60.94-12.23-83.16-34.44-22.21-22.21-34.44-51.74-34.44-83.16s12.23-60.94,34.44-83.15c22.21-22.21,51.74-34.44,83.16-34.44s60.94,12.23,83.15,34.44c22.21,22.21,34.44,51.74,34.44,83.15s-12.23,60.94-34.44,83.16c-22.21,22.21-51.74,34.44-83.15,34.44Zm259.49-438.72l-147.64,147.64c-20.54-13.27-43.59-22.98-68.27-28.29V89.42c40.38,4.21,79.61,14.29,117.09,30.15,35.74,15.12,68.83,35.01,98.82,59.32Zm-303.07-89.46v208.81c-24.69,5.31-47.73,15.02-68.27,28.29l-147.64-147.63c29.99-24.31,63.08-44.2,98.82-59.32,37.48-15.85,76.71-25.94,117.09-30.15ZM178.88,240.51l147.63,147.64c-13.27,20.54-22.98,43.59-28.29,68.27H89.42c4.21-40.38,14.29-79.61,30.15-117.09,15.12-35.74,35.01-68.83,59.32-98.82Zm-89.46,303.07h208.81c5.31,24.69,15.02,47.73,28.29,68.27l-147.63,147.64c-24.31-29.99-44.2-63.08-59.32-98.82-15.85-37.48-25.94-76.71-30.15-117.09Zm151.09,277.54l147.63-147.64c20.54,13.27,43.59,22.98,68.27,28.29v208.81c-40.38-4.21-79.61-14.29-117.09-30.15-35.74-15.12-68.83-35.01-98.82-59.32Zm303.07,89.46v-208.81c24.69-5.31,47.73-15.02,68.27-28.29l147.63,147.63c-29.99,24.31-63.08,44.2-98.82,59.32-37.48,15.85-76.71,25.94-117.09,30.15Zm277.54-151.09l-147.63-147.63c13.27-20.54,22.98-43.59,28.29-68.27h208.81c-4.21,40.38-14.29,79.61-30.15,117.09-15.12,35.74-35.01,68.83-59.32,98.82Z"/>
</svg>