<?xml version="1.0" encoding="UTF-8"?>
<svg id="Layer_1" data-name="Layer 1" xmlns="http://www.w3.org/2000/svg" viewBox="0 0 2000 2630.06">
  <defs>
    <style>
      .cls-1 {
        fill: #31353d;
        stroke-width: 0px;
      }
    </style>
  </defs>
  <path class="cls-1" d="m1000.34,2630.06c-35.42,0-70.7-16.47-105.68-49.42-294.43-277.46-517.67-557.11-682.46-855-106.1-191.82-171.32-372.93-199.43-553.68C-73.45,617.34,285.61,109.19,830.19,15.18c22.89-3.9,45.81-7.17,68.76-10.39l29.44-4.16c2.7-.42,5.43-.62,8.16-.62h127.82c3.07,0,6.13.26,9.15.78,15.33,2.49,30.74,4.78,46.12,7.07,34.85,5.2,70.86,10.6,106.72,18.66,382.68,85.91,694.99,417.83,759.45,807.19,34.35,207.46,6.5,421.63-85.2,654.66-86.17,218.95-213.41,430.67-400.42,666.3-120.98,152.37-253.56,295.86-394.06,426.41-35.18,32.64-70.55,49.01-105.78,49.01ZM966.74,112.67c-17.44,0-34.86,1.23-52.13,3.69h0c-21.8,3.07-43.63,6.13-65.33,9.82C365.98,209.64,47.4,661.41,124.09,1154.71c26.04,167.45,87.07,336.35,186.67,516.37,159.08,287.55,375.35,558.25,661.13,827.56,26.89,25.36,30.14,25.26,57.61-.1,136.32-126.7,265.02-265.98,382.44-413.94,179.92-226.64,301.86-429.16,383.85-637.51,84.03-213.54,109.84-408.17,78.92-595-57.19-345.28-333.93-639.59-673.03-715.72-31.83-7.12-64.29-11.95-98.64-17.1-5.31-.78-10.62-1.58-15.92-2.38-18.45-2.78-37.08-4.22-55.74-4.22h-64.63Zm28.63,1329.58c-107.71,0-210.76-40.64-291.96-115.53-88.43-81.54-139.8-192.75-144.6-313.17-4.65-116.83,37.68-228.61,119.17-314.78,81.18-85.75,191.27-135.54,310.02-140.21,239.66-9.2,443.51,182.67,454.03,428.12h0c4.91,114.28-35.73,224.3-114.41,309.89-81.51,88.71-193.25,140.27-314.62,145.31-5.87.21-11.77.36-17.62.36Zm9.41-771.38c-4.13,0-8.24.1-12.37.26-89.18,3.48-171.78,40.8-232.61,105.08-60.47,63.92-91.88,146.61-88.43,232.87,3.61,90.32,42.1,173.68,108.41,234.85,63.45,58.47,144.24,89.28,228.59,85.39,91.26-3.74,175.19-42.46,236.33-108.98,58.28-63.4,88.4-144.68,84.81-228.87h0c-7.67-179.29-152.14-320.6-324.73-320.6Z"/>
</svg>