<?xml version="1.0" encoding="UTF-8"?>
<svg id="Layer_1" data-name="Layer 1" xmlns="http://www.w3.org/2000/svg" viewBox="0 0 4100 1257.73">
  <defs>
    <style>
      .cls-1 {
        fill: #31353d;
      }

      .cls-1, .cls-2 {
        stroke-width: 0px;
      }

      .cls-2 {
        fill: #b57edc;
      }
    </style>
  </defs>
  <g>
    <rect class="cls-1" x="-3.01" y="567.15" width="159.82" height="690.58"/>
    <polygon class="cls-1" points="801.68 986.11 458.37 567.15 326.17 567.15 326.17 1257.73 484.02 1257.73 484.02 838.57 828.32 1257.73 959.53 1257.73 959.53 567.15 801.68 567.15 801.68 986.11"/>
    <polygon class="cls-1" points="1604.7 986.11 1261.39 567.15 1129.19 567.15 1129.19 1257.73 1287.04 1257.73 1287.04 838.57 1631.34 1257.73 1762.55 1257.73 1762.55 567.15 1604.7 567.15 1604.7 986.11"/>
    <polygon class="cls-1" points="2216.74 1060.38 2006.72 567.15 1834.07 567.15 2132.01 1257.73 2289.85 1257.73 2588.77 567.15 2429.94 567.15 2216.74 1060.38"/>
    <path class="cls-1" d="m3321.77,769.88c-19.08-43.07-45.55-80.73-79.42-112.96-33.88-32.22-73.67-57.22-119.37-74.98-45.72-17.76-95.86-26.64-150.45-26.64s-103.93,8.88-149.95,26.64c-46.04,17.76-86.17,42.76-120.36,74.98-34.21,32.23-60.67,70.04-79.42,113.45-18.74,43.41-28.12,90.76-28.12,142.06s9.37,98.65,28.12,142.06c18.74,43.41,45.04,81.24,78.92,113.45,33.87,32.23,73.99,57.22,120.36,74.98,46.37,17.76,96.83,26.64,151.43,26.64s103.74-8.88,149.46-26.64c45.7-17.76,85.49-42.58,119.37-74.48,33.87-31.89,60.33-69.71,79.42-113.45,19.07-43.73,28.61-91.25,28.61-142.55s-9.54-99.47-28.61-142.56Zm-149.46,232.33c-10.85,26.98-26.14,50.31-45.87,70.04-19.73,19.73-42.59,34.87-68.56,45.38-25.99,10.53-54.43,15.78-85.34,15.78s-59.53-5.26-85.83-15.78c-26.31-10.51-49.17-25.65-68.56-45.38-19.41-19.73-34.53-43.24-45.38-70.54-10.85-27.28-16.28-57.05-16.28-89.28s5.43-62.8,16.28-89.77c10.85-26.96,26.14-50.31,45.87-70.04,19.73-19.73,42.58-34.85,68.56-45.38,25.97-10.51,54.41-15.78,85.33-15.78s59.52,5.27,85.83,15.78c26.3,10.53,49.16,25.65,68.56,45.38,19.39,19.73,34.53,43.08,45.38,70.04,10.85,26.98,16.28,56.9,16.28,89.77s-5.43,62.81-16.28,89.77Z"/>
  </g>
  <g>
    <path class="cls-2" d="m3737.79,13.08c-8.96.03-15.79,5.72-18.71,15.89-8.72,30.44-17.24,60.93-26.06,91.34-26.28,90.61-82.99,153.98-171.57,186.61-37.09,13.67-75.95,22.57-114.01,33.6-11.29,3.27-17.08,9.42-17.21,18.51-.13,9.08,5.74,15.72,16.77,18.87,32.35,9.24,64.88,17.88,97.02,27.79,93.54,28.83,155.92,89.88,185.95,183.13,10.66,33.11,19.35,66.85,29.04,100.28,1.02,3.52,2.2,7.21,4.24,10.17,4.04,5.85,10.04,8.41,17.14,7.31,8.62-1.33,13.38-6.94,15.68-15.04,8.81-31.01,17.5-62.05,26.5-93,27.41-94.27,87.1-158.36,180.2-189.91,34.52-11.7,70.06-20.41,105.11-30.54,11.98-3.46,17.71-9.84,17.53-19.13-.18-9.06-5.73-15.12-17.29-18.44-30.42-8.73-60.93-17.12-91.28-26.08-98.15-28.96-162.94-92.03-192.87-190.15-9.65-31.64-18.26-63.61-27.4-95.41-2.9-10.08-9.85-15.82-18.79-15.8Z"/>
    <path class="cls-1" d="m3737.23,719.92c-10.01,0-18.83-4.66-24.74-13.21-3.16-4.59-4.77-9.61-6.03-13.95-3.28-11.28-6.43-22.59-9.58-33.9-6.16-22.1-12.32-44.21-19.35-66.03-28.47-88.39-88.13-147.14-177.35-174.63-21.76-6.72-43.7-12.84-65.63-18.96l-31.13-8.75c-16.66-4.77-26.47-16.6-26.26-31.65.12-8.69,3.74-24.24,26.64-30.89,11.84-3.44,23.74-6.66,35.64-9.88,25.76-6.98,52.4-14.19,77.5-23.43,83.14-30.62,138.16-90.51,163.52-177.97,5.21-17.98,10.32-35.98,15.42-53.97l10.63-37.35c4.47-15.6,16.44-25.32,31.24-25.36h.1c14.83,0,26.82,9.67,31.3,25.26l9.16,32.34c5.91,21,11.82,42.01,18.19,62.87,28.27,92.69,90.2,153.72,184.06,181.41,18.76,5.53,37.59,10.86,56.41,16.17l34.79,9.89c22.88,6.57,26.58,22.09,26.75,30.75.18,8.97-3.09,25.05-26.98,31.97-11.37,3.28-22.79,6.43-34.21,9.56-23.27,6.39-47.32,12.99-70.33,20.8-87.72,29.73-145.53,90.69-171.83,181.18-6.63,22.79-13.1,45.64-19.55,68.48l-6.92,24.44c-3.9,13.7-13.22,22.36-26.26,24.39-1.76.27-3.49.41-5.19.41Zm.69-693.75c-1.85-.14-4.4-.11-6.25,6.4l-10.61,37.28c-5.12,18.04-10.24,36.08-15.47,54.11-27.81,95.9-88.24,161.58-179.61,195.25-26.19,9.65-53.4,17.01-79.7,24.13-11.75,3.18-23.51,6.36-35.19,9.75-7.72,2.24-7.75,4.77-7.77,6.12-.02,1.21-.06,4.02,7.28,6.12l30.98,8.71c22.16,6.18,44.32,12.38,66.31,19.15,97.85,30.16,163.31,94.63,194.54,191.62,7.14,22.15,13.4,44.58,19.66,67.02,3.13,11.22,6.25,22.44,9.5,33.63.5,1.71,1.43,4.91,2.45,6.39,1.19,1.71,2.25,2.16,4.38,1.8,1.78-.28,3.64-.56,5.1-5.69l6.91-24.42c6.48-22.9,12.96-45.8,19.61-68.66,28.83-99.18,92.27-166.02,188.56-198.66,23.74-8.05,48.17-14.76,71.8-21.25,11.31-3.1,22.62-6.21,33.88-9.47,8.16-2.35,8.11-4.83,8.08-6.31-.03-1.55-.08-3.9-7.82-6.12l-34.67-9.85c-18.92-5.35-37.84-10.69-56.69-16.26-102.82-30.33-170.68-97.24-201.68-198.86-6.43-21.06-12.39-42.24-18.35-63.43l-9.12-32.18c-1.78-6.18-4.84-6.32-6.09-6.32Z"/>
  </g>
</svg>