<?xml version="1.0" encoding="UTF-8"?>
<svg id="Layer_1" data-name="Layer 1" xmlns="http://www.w3.org/2000/svg" viewBox="0 0 4100 1257.73">
  <defs>
    <style>
      .cls-1 {
        fill: #31353d;
      }

      .cls-1, .cls-2 {
        stroke-width: 0px;
      }

      .cls-2 {
        fill: #fdb813;
      }
    </style>
  </defs>
  <g>
    <rect class="cls-1" x="-3.01" y="567.15" width="159.82" height="690.58"/>
    <polygon class="cls-1" points="801.68 986.11 458.37 567.15 326.17 567.15 326.17 1257.73 484.02 1257.73 484.02 838.57 828.32 1257.73 959.53 1257.73 959.53 567.15 801.68 567.15 801.68 986.11"/>
    <polygon class="cls-1" points="1604.7 986.11 1261.39 567.15 1129.19 567.15 1129.19 1257.73 1287.04 1257.73 1287.04 838.57 1631.34 1257.73 1762.55 1257.73 1762.55 567.15 1604.7 567.15 1604.7 986.11"/>
    <polygon class="cls-1" points="2216.74 1060.38 2006.72 567.15 1834.07 567.15 2132.01 1257.73 2289.85 1257.73 2588.77 567.15 2429.94 567.15 2216.74 1060.38"/>
    <path class="cls-1" d="m3321.77,769.88c-19.08-43.07-45.55-80.73-79.42-112.96-33.88-32.22-73.67-57.22-119.37-74.98-45.72-17.76-95.86-26.64-150.45-26.64s-103.93,8.88-149.95,26.64c-46.04,17.76-86.17,42.76-120.36,74.98-34.21,32.23-60.67,70.04-79.42,113.45-18.74,43.41-28.12,90.76-28.12,142.06s9.37,98.65,28.12,142.06c18.74,43.41,45.04,81.24,78.92,113.45,33.87,32.23,73.99,57.22,120.36,74.98,46.37,17.76,96.83,26.64,151.43,26.64s103.74-8.88,149.46-26.64c45.7-17.76,85.49-42.58,119.37-74.48,33.87-31.89,60.33-69.71,79.42-113.45,19.07-43.73,28.61-91.25,28.61-142.55s-9.54-99.47-28.61-142.56Zm-149.46,232.33c-10.85,26.98-26.14,50.31-45.87,70.04-19.73,19.73-42.59,34.87-68.56,45.38-25.99,10.53-54.43,15.78-85.34,15.78s-59.53-5.26-85.83-15.78c-26.31-10.51-49.17-25.65-68.56-45.38-19.41-19.73-34.53-43.24-45.38-70.54-10.85-27.28-16.28-57.05-16.28-89.28s5.43-62.8,16.28-89.77c10.85-26.96,26.14-50.31,45.87-70.04,19.73-19.73,42.58-34.85,68.56-45.38,25.97-10.51,54.41-15.78,85.33-15.78s59.52,5.27,85.83,15.78c26.3,10.53,49.16,25.65,68.56,45.38,19.39,19.73,34.53,43.08,45.38,70.04,10.85,26.98,16.28,56.9,16.28,89.77s-5.43,62.81-16.28,89.77Z"/>
  </g>
  <g>
    <path class="cls-2" d="m3431.58,402.72c-6.64.01-9.21-1.49-10.23-8.45-6.84-46.82-14.18-93.57-21.37-140.34-6.56-42.65-12.98-85.33-19.82-127.93-1.77-11.05.46-20.03,9.86-26.46,8.6-5.88,18.85-5.08,28.68,2.26,42.5,31.75,84.95,63.57,127.36,95.44,21.25,15.96,39.36,12.93,54.14-9.25,34.72-52.11,70.29-103.69,103.79-156.58,15.69-24.77,43.04-24.32,58.29-.31,33.56,52.84,69.09,104.44,103.8,156.55,15.09,22.65,32.93,25.69,54.61,9.41,42.23-31.71,84.46-63.42,126.76-95.03,13.08-9.78,28.11-7.75,35.96,4.49,3.5,5.46,4.22,11.39,3.25,17.68-8.78,56.94-17.51,113.9-26.31,170.84-5.17,33.44-10.64,66.83-15.47,100.31-.89,6.18-3.23,7.35-8.86,7.34-100.98-.15-503.94-.18-604.43.04Z"/>
    <path class="cls-1" d="m3431.53,415.66c-13.36,0-21.1-6.57-22.99-19.53-5.3-36.26-10.89-72.48-16.49-108.7l-9.83-63.95c-4.87-31.82-9.74-63.66-14.84-95.44-2.76-17.16,2.4-30.34,15.33-39.19,13.2-9.01,29.54-8.04,43.75,2.59,42.5,31.75,84.96,63.58,127.38,95.44,7.63,5.74,14.22,8.21,19.56,7.27,5.35-.92,10.74-5.41,16.03-13.35l30.4-45.33c24.36-36.18,49.54-73.62,73.23-111.01,9.84-15.54,24.49-24.45,40.18-24.46h.02c15.65,0,30.21,8.8,39.95,24.15,23.63,37.2,48.69,74.47,72.93,110.5l30.71,45.81c5.46,8.19,10.93,12.81,16.26,13.73,5.31.78,11.98-1.63,19.8-7.5,42.24-31.71,84.48-63.43,126.79-95.05,9.62-7.18,20.69-10.09,31.14-8.21,9.61,1.74,17.94,7.45,23.47,16.07,4.95,7.72,6.68,16.69,5.15,26.65l-31.36,203.11c-3.57,22.62-7.13,45.25-10.4,67.92-1.22,8.42-5.95,18.43-21.62,18.43h-.08c-100.97-.14-503.89-.16-604.38.05h-.08Zm-1.59-25.97l1.65,13.02-.03-12.39c-.54-.3-1.11-.54-1.62-.63Zm-27.74-281.12c-2.47,0-4.05,1.07-4.88,1.64-3.11,2.12-5.8,4.79-4.37,13.72,5.11,31.85,9.99,63.73,14.87,95.62l9.83,63.91c5.47,35.41,10.95,70.84,16.14,106.3,102.91-.21,493.18-.21,598.81-.05,3.22-21.92,6.57-43.2,9.93-64.49l31.35-203.02c.72-4.7-.28-7.04-1.35-8.72-1.65-2.58-3.77-4.12-6.3-4.58-3.31-.59-7.22.63-11.01,3.46-42.29,31.62-84.52,63.32-126.74,95.02-13.75,10.32-27.12,14.41-39.72,12.3-12.63-2.16-23.88-10.53-33.44-24.88l-30.65-45.72c-24.33-36.17-49.5-73.58-73.31-111.07-4.9-7.71-11.49-12.14-18.1-12.14-6.01.47-13.25,4.43-18.32,12.43-23.88,37.69-49.16,75.26-73.62,111.61l-30.33,45.22c-9.4,14.1-20.57,22.35-33.22,24.51-12.64,2.14-25.93-1.9-39.47-12.09-42.41-31.86-84.84-63.67-127.33-95.42-3.69-2.76-6.57-3.59-8.75-3.59Z"/>
  </g>
</svg>