<?xml version="1.0" encoding="UTF-8"?>
<svg id="Layer_1" data-name="Layer 1" xmlns="http://www.w3.org/2000/svg" viewBox="0 0 1000 1000">
  <defs>
    <style>
      .maxwhite-1 {
        fill: #31353d;
      }

      .maxwhite-1, .maxwhite-2 {
        stroke-width: 0px;
      }

      .maxwhite-2 {
        fill: #fff;
      }
    </style>
  </defs>
  <path class="maxwhite-2" d="m500,0C223.86,0,0,223.86,0,500c0,276.14,223.86,500,500,500s500-223.86,500-500S776.14,0,500,0Z"/>
  <g>
    <path class="maxwhite-1" d="m712.57,470.79c-.74,0-1.51-.03-2.27-.12-12.46-1.23-21.55-12.33-20.31-24.8l15-151.3-150.82,15.42c-12.31,1.24-23.59-7.79-24.86-20.25-1.27-12.46,7.79-23.59,20.25-24.86l178.43-18.24c6.7-.66,13.49,1.7,18.3,6.49,4.81,4.81,7.23,11.53,6.55,18.3l-17.74,178.91c-1.15,11.69-11.01,20.43-22.52,20.43Z"/>
    <path class="maxwhite-1" d="m564.31,453.39c-5.82,0-11.6-2.21-16.03-6.64-8.86-8.86-8.86-23.2,0-32.06l149.02-149.02c8.86-8.86,23.2-8.86,32.06,0,8.86,8.86,8.86,23.2,0,32.06l-149.02,149.02c-4.43,4.43-10.21,6.64-16.03,6.64Z"/>
    <g>
      <path class="maxwhite-1" d="m269.72,753.46c-5.96,0-11.75-2.36-16-6.61-4.84-4.81-7.23-11.53-6.55-18.3l17.77-178.91c1.24-12.43,12.31-21.8,24.8-20.31,12.46,1.23,21.55,12.34,20.31,24.8l-15.03,151.3,150.82-15.42c12.37-1.08,23.59,7.81,24.86,20.25,1.27,12.46-7.79,23.59-20.25,24.86l-178.43,18.24c-.77.07-1.54.12-2.3.12Z"/>
      <path class="maxwhite-1" d="m286.66,740.97c-5.82,0-11.6-2.21-16.03-6.64-8.86-8.86-8.86-23.2,0-32.06l149.05-149.02c8.86-8.86,23.2-8.86,32.06,0,8.86,8.86,8.86,23.2,0,32.06l-149.05,149.02c-4.43,4.43-10.21,6.64-16.03,6.64Z"/>
    </g>
  </g>
</svg>