<?xml version="1.0" encoding="UTF-8"?>
<svg id="Layer_1" data-name="Layer 1" xmlns="http://www.w3.org/2000/svg" viewBox="0 0 1000 1000">
  <defs>
    <style>
      .minblack-1 {
        fill: #31353d;
      }

      .minblack-1, .minblack-2 {
        stroke-width: 0px;
      }

      .minblack-2 {
        fill: #fff;
      }
    </style>
  </defs>
  <path class="minblack-1" d="m500,0C223.86,0,0,223.86,0,500c0,276.14,223.86,500,500,500s500-223.86,500-500S776.14,0,500,0Z"/>
  <g>
    <g>
      <path class="minblack-2" d="m421.59,748.79c-.74,0-1.51-.03-2.27-.1-12.46-1.24-21.55-12.34-20.31-24.81l12.84-129.51-129.1,13.21c-12.02,1.31-23.59-7.78-24.86-20.25-1.27-12.46,7.79-23.59,20.25-24.86l156.7-16.03c6.76-.65,13.49,1.7,18.3,6.49,4.81,4.81,7.23,11.53,6.55,18.3l-15.59,157.13c-1.15,11.69-11.01,20.43-22.52,20.43Z"/>
      <path class="minblack-2" d="m291.34,733.52c-5.82,0-11.6-2.21-16.03-6.64-8.86-8.86-8.86-23.2,0-32.06l130.9-130.88c8.86-8.86,23.2-8.86,32.06,0s8.86,23.2,0,32.06l-130.9,130.88c-4.43,4.43-10.21,6.64-16.03,6.64Z"/>
    </g>
    <g>
      <path class="minblack-2" d="m562.85,453.7c-5.96,0-11.75-2.36-16-6.61-4.84-4.81-7.23-11.53-6.55-18.3l15.62-157.13c1.24-12.47,12.61-21.7,24.8-20.31,12.46,1.23,21.55,12.34,20.31,24.8l-12.87,129.51,129.1-13.21c12.46-1.24,23.62,7.81,24.86,20.25,1.27,12.46-7.79,23.59-20.25,24.86l-156.7,16.03c-.77.07-1.54.12-2.3.12Z"/>
      <path class="minblack-2" d="m577.64,442.73c-5.82,0-11.6-2.21-16.03-6.64-8.86-8.86-8.86-23.2,0-32.06l130.9-130.9c8.86-8.86,23.2-8.86,32.06,0,8.86,8.86,8.86,23.2,0,32.06l-130.9,130.9c-4.43,4.43-10.21,6.64-16.03,6.64Z"/>
    </g>
  </g>
</svg>