<?xml version="1.0" encoding="UTF-8"?>
<svg id="Layer_1" data-name="Layer 1" xmlns="http://www.w3.org/2000/svg" viewBox="0 0 2000 2000">
  <defs>

  </defs>
  <path   fill="currentColor" stroke="currentColor"   d="m1170.09,1377.17c-15.58,0-31.16-5.94-43.05-17.83-23.78-23.78-23.78-62.33,0-86.1l271.18-271.18-266.12-276.09c-23.34-24.21-22.63-62.75,1.58-86.09s62.75-22.63,86.09,1.58l307.6,319.12c23.03,23.9,22.68,61.84-.78,85.31l-313.45,313.45c-11.89,11.89-27.47,17.83-43.05,17.83Z"/>
  <path  fill="currentColor" stroke="currentColor"    d="m824.94,1377.17c-15.96,0-31.89-6.23-43.84-18.63l-307.6-319.12c-23.03-23.9-22.68-61.84.78-85.31l313.45-313.45c23.78-23.78,62.33-23.78,86.1,0,23.78,23.78,23.78,62.33,0,86.1l-271.18,271.18,266.12,276.09c23.34,24.21,22.63,62.75-1.58,86.09-11.81,11.39-27.04,17.05-42.25,17.05Z"/>
  <path  fill="currentColor" stroke="currentColor"   d="m1000,2000c-267.11,0-518.23-104.02-707.11-292.89C104.02,1518.23,0,1267.11,0,1000S104.02,481.77,292.89,292.89C481.77,104.02,732.89,0,1000,0s518.23,104.02,707.11,292.89c188.88,188.87,292.89,440,292.89,707.11s-104.02,518.23-292.89,707.11c-188.88,188.88-440,292.89-707.11,292.89Zm0-1878.23c-484.26,0-878.23,393.97-878.23,878.23s393.97,878.23,878.23,878.23,878.23-393.97,878.23-878.23S1484.26,121.77,1000,121.77Z"/>
</svg>