<?xml version="1.0" encoding="UTF-8"?>
<svg id="Layer_1" data-name="Layer 1" xmlns="http://www.w3.org/2000/svg" viewBox="0 0 1708.49 2016.68">
  <defs>
    <style>
      .notoff-1 {
        stroke-width: 0px;
      }
    </style>
  </defs>
  <path class="notoff-1" d="m1575.38,1686.76H132.84c-49.06,0-92.54-25.64-116.3-68.61-23.36-42.34-21.88-94.08,3.82-135.05l137.95-219.15-31.68-492.09c-12.99-202.17,56.13-394.88,194.7-542.69C459.91,81.43,647.84,0,850.41,0s389.87,81.14,528.39,228.55c138.52,147.35,207.98,339.72,195.45,541.61l-29.17,470.95,144.73,245.19c24.56,41.6,24.96,91.45.97,133.39-23.93,42-67.07,67.07-115.39,67.07ZM850.41,104.85c-173.28,0-334.02,69.63-452.6,196.02-118.52,126.44-177.67,291.34-166.56,464.28l32.76,509.01c.68,11-2.05,21.94-7.98,31.28l-146.95,233.51c-7.92,12.65-3.19,24.16-.74,28.49,2.39,4.39,9.57,14.47,24.5,14.47h1442.54c14.7,0,21.94-9.91,24.39-14.13,2.39-4.27,7.24-15.5-.23-28.15l-152.88-259.04c-5.36-9.06-7.81-19.43-7.18-29.92l30.14-487.02c10.71-172.71-48.66-337.27-167.18-463.31-118.52-126.1-279.04-195.5-452.03-195.5Z"/>
  <path class="notoff-1" d="m842.71,2016.68c-187.47,0-339.95-152.54-339.95-340.01v-21.03c0-28.95,23.48-52.42,52.42-52.42s52.42,23.48,52.42,52.42v21.03c0,129.69,105.47,235.16,235.1,235.16s235.16-105.47,235.16-235.16v-21.03c0-28.95,23.48-52.42,52.42-52.42s52.42,23.48,52.42,52.42v21.03c0,187.47-152.54,340.01-340.01,340.01Z"/>
</svg>