<?xml version="1.0" encoding="UTF-8"?>
<svg id="Layer_1" data-name="Layer 1" xmlns="http://www.w3.org/2000/svg" viewBox="0 0 1732.65 2140.64">
  <defs>
    <style>
      .cls-1 {
        fill: #31353d;
      }

      .cls-1, .cls-2, .cls-3 {
        stroke-width: 0px;
      }

      .cls-3 {
        fill: #4b57db;
      }
    </style>
  </defs>
  <path class="cls-2" d="m1575.38,1810.71H132.84c-49.06,0-92.54-25.64-116.3-68.61-23.36-42.34-21.88-94.08,3.82-135.05l137.95-219.15-31.68-492.09c-12.99-202.17,56.13-394.88,194.7-542.69,138.58-147.75,326.5-229.18,529.07-229.18s389.87,81.14,528.39,228.55c138.52,147.35,207.98,339.72,195.45,541.61l-29.17,470.95,144.73,245.19c24.56,41.6,24.96,91.45.97,133.39-23.93,42-67.07,67.07-115.39,67.07ZM850.41,228.8c-173.28,0-334.02,69.63-452.6,196.02-118.52,126.44-177.67,291.34-166.56,464.28l32.76,509.01c.68,11-2.05,21.94-7.98,31.28l-146.95,233.51c-7.92,12.65-3.19,24.16-.74,28.49,2.39,4.39,9.57,14.47,24.5,14.47h1442.54c14.7,0,21.94-9.91,24.39-14.13,2.39-4.27,7.24-15.5-.23-28.15l-152.88-259.04c-5.36-9.06-7.81-19.43-7.18-29.92l30.14-487.02c10.71-172.71-48.66-337.27-167.18-463.31-118.52-126.1-279.04-195.5-452.03-195.5Z"/>
  <g>
    <circle class="cls-3" cx="1370.31" cy="359.35" r="330.12"/>
    <path class="cls-1" d="m1370.3,721.69c-199.78,0-362.29-162.57-362.29-362.34S1170.53-2.94,1370.3-2.94s362.34,162.51,362.34,362.29-162.57,362.34-362.34,362.34Zm0-660.24c-164.28,0-297.9,133.62-297.9,297.9s133.62,297.95,297.9,297.95,297.95-133.68,297.95-297.95S1534.58,61.45,1370.3,61.45Z"/>
  </g>
  <path class="cls-2" d="m842.71,2140.64c-187.47,0-339.95-152.54-339.95-340.01v-21.03c0-28.95,23.48-52.42,52.42-52.42s52.42,23.48,52.42,52.42v21.03c0,129.69,105.47,235.16,235.1,235.16s235.16-105.47,235.16-235.16v-21.03c0-28.95,23.48-52.42,52.42-52.42s52.42,23.48,52.42,52.42v21.03c0,187.47-152.54,340.01-340.01,340.01Z"/>
</svg>