<?xml version="1.0" encoding="UTF-8"?>
<svg id="Layer_1" data-name="Layer 1" xmlns="http://www.w3.org/2000/svg" viewBox="0 0 1654.39 1655.37">
  <defs>
    <style>
      .blackpin-1 {
        fill: #31353d;
        stroke-width: 0px;
      }
    </style>
  </defs>
  <path fill="currentColor" class="blackpin-1" d="m829.45,1652.5c-23.68,0-45.81-10.04-65.92-29.97-53.39-53.08-178.19-177.96-246.74-246.61-49.82,49.78-137.42,137.15-185.72,185.32-64.23,64-168.78,63.92-232.91-.31-31.13-31.13-48.3-72.52-48.35-116.55-.04-44.02,17.13-85.46,48.26-116.59l185.28-185.37c-55.17-55.13-168.2-168.15-245.71-245.71-19.22-19.22-40.77-45.81-37.24-81.18,4.73-48.13,52.72-80.2,125.38-128.72,145.85-97.55,327.6-125.29,511.77-78.23,13.11-12.49,24.93-24.98,36.75-37.47,10.3-10.84,20.61-21.63,31.18-32.11,62.76-62.09,92.82-91.97,118.42-117.53-9.23-9.86-21.5-22.88-37.78-40.01-83.9-88.36-82.29-225.24,3.57-311.59l4.82-4.86C836.81,22.41,893.1-1,953.09-1h.89c60.35.22,116.81,24.13,159.01,67.26l478,488.98c85.15,87.11,84.43,228.1-1.61,314.27-42.24,42.28-98.39,65.57-158.16,65.61h-.09c-59.77,0-115.92-23.28-158.12-65.52l-38.54-38.49-44.74,44.83c-47.55,47.64-95.05,95.27-143.04,142.46,56.6,199.82,22.03,385.77-102.81,552.62-36.31,51.83-70.56,77.97-106.87,81.18-2.54.22-5.04.31-7.58.31Zm3.35-90.77h.49-.49Zm-315.96-296.07h0c12.13,0,23.73,4.82,32.29,13.38l26.14,26.14c66.9,66.99,197.63,197.9,252.67,252.49,1.07,1.12,1.96,1.92,2.68,2.5,5.04-2.85,18.06-12.44,39.34-42.73,109.94-147.01,138.4-302.98,87.78-477.91-8.56-29.75-.36-61.46,21.36-82.78,48.97-48.08,97.5-96.7,145.98-145.31l77.12-77.21c17.84-17.84,46.74-17.84,64.58,0l70.83,70.74c24.98,25.02,58.21,38.8,93.53,38.8h.04c35.37-.04,68.6-13.83,93.53-38.8,50.89-50.98,51.34-134.34.98-185.86l-478-488.98c-24.98-25.51-58.38-39.65-94.07-39.79h-.54c-35.46,0-68.78,13.83-93.8,39.03l-4.82,4.86c-50.8,51.11-51.74,132.07-2.14,184.34,60.84,64,67.8,72.57,70.12,75.38,14.85,18.15,13.51,44.6-3.08,61.19l-8.56,8.56c-33.05,33.09-59.54,59.54-141.12,140.23-9.9,9.81-19.54,19.94-29.13,30.06-14.05,14.81-28.14,29.57-42.95,43.53-30.51,28.68-61.37,24.93-81.98,19.71-159.1-40.81-314.98-17.53-439.11,65.48-26.32,17.62-68.29,45.67-82.29,60.7,1.74,2.14,4.33,5,8.03,8.74,103.17,103.21,269.26,269.31,277.87,277.87,8.61,8.56,13.47,20.2,13.47,32.34s-4.82,23.77-13.38,32.34l-217.57,217.66c-28.63,28.63-28.59,75.29.09,103.97,28.59,28.5,75.16,28.77,103.83.18,62.62-62.35,191.08-190.59,217.97-217.48,8.56-8.56,20.16-13.38,32.29-13.38Z"/>
</svg>