<?xml version="1.0" encoding="UTF-8"?>
<svg id="Layer_1" data-name="Layer 1" xmlns="http://www.w3.org/2000/svg" viewBox="0 0 1000 1000">
  <defs>
    
  </defs>
  <path fill="currentColor" stroke="currentColor" d="m301.53,810.75c-17.24,17.25-99.32,99.41-139.34,139.17-29.8,29.82-78,29.53-107.79,0-29.8-29.83-29.8-78.07,0-107.89,45.57-45.61,135.84-135.96,139.05-139.17-5.55-5.55-111.88-111.98-177.9-178.06-30.97-30.99-16.65-43.57,52-89.47,89.39-59.94,200.11-72.8,304.39-45.9,10.52,2.63,17.24,1.75,25.12-5.56,15.77-14.91,30.09-31.28,45.57-46.49,56.67-55.85,71.57-71.05,95.52-95.03-3.8-4.68-22.2-24.27-43.53-46.78-42.36-44.73-41.48-114.91,1.75-158.77l3.21-3.22c44.7-45.03,117.73-44.73,162.13.58l305.85,313.14c43.53,44.73,43.24,116.08-.87,159.94-44.4,44.44-116.56,44.44-160.96,0-23.08-22.81-42.65-42.69-45.28-45.32-6.42,6.43-11.98,11.99-17.53,17.54-41.77,41.81-83.25,83.92-125.32,125.14-6.43,6.14-8.48,15.5-6.14,23.97,34.76,120.17,14.61,230.69-60.47,330.98-34.47,49.12-55.21,45.9-71.28,29.82-40.61-40.35-146.06-146.19-178.49-178.35l.29-.29Z"/>
</svg>