<?xml version="1.0" encoding="UTF-8"?>
<svg id="Layer_1" data-name="Layer 1" xmlns="http://www.w3.org/2000/svg" viewBox="0 0 1845.91 1836.78">
  <defs>
    <style>
      .cls-1 {
        fill: #fff;
        stroke-width: 0px;
      }
    </style>
  </defs>
  <path class="cls-1" d="m1221.53,1836.78c-37.54,0-71.17-21.55-86.8-56.13l-340.34-752.68L61.71,751.1C23.46,736.53-.7,700.77.02,660.03c.71-40.62,26.17-75.43,64.66-88.58L1719.49,5.28c33.99-11.84,71.53-3.43,97.58,21.91,26.05,25.46,35.29,62.76,24.28,97.46l-528.75,1645.7c-12.08,37.89-45.59,63.95-85.38,66.2-1.89.12-3.79.24-5.68.24Zm-24.39-103.5l-.12.12.12-.12ZM171.73,662.99l675.47,255.32c23.33,8.64,42.87,26.88,53.29,49.97l317.01,701.29L1710.13,136.61,171.73,662.99Zm632.72,368.76q.12.12.24.12l-.24-.12ZM1759.04,119.91h-.24.24Z"/>
  <path class="cls-1" d="m839.26,1040.75c-15.75,0-31.62-6.16-43.46-18.36-23.33-24.04-22.86-62.41,1.18-85.74L1731.57,27.54c23.92-23.21,62.41-22.86,85.74,1.18,23.33,24.04,22.86,62.41-1.18,85.74l-934.58,909.12c-11.72,11.49-27,17.17-42.28,17.17Z"/>
</svg>