<?xml version="1.0" encoding="UTF-8"?>
<svg id="Layer_1" data-name="Layer 1" xmlns="http://www.w3.org/2000/svg" viewBox="0 0 2000 2124.52">
  <defs>
    <style>
      .cls-1 {
        fill: #31353d;
        stroke-width: 0px;
      }
    </style>
  </defs>
  <path class="cls-1" d="m1000,2124.52C448.6,2124.52,0,1675.92,0,1124.52S448.6,124.47,1000,124.47c180.83,0,358.14,48.83,512.66,141.23,103.16,61.67,193.62,140.69,268.85,234.75l-72.08,57.66c-68.38-85.5-150.46-157.22-244.17-213.22-140.19-83.84-301.11-128.16-465.27-128.16-500.5,0-907.74,407.24-907.74,907.78s407.24,907.74,907.74,907.74,907.74-407.2,907.74-907.74h92.26c0,551.4-448.6,1000-1000,1000Z"/>
  <polygon class="cls-1" points="1238.04 700.56 1220.56 609.92 1728.98 512.21 1638.26 16.58 1729.07 0 1836.2 585.55 1238.04 700.56"/>
</svg>