<?xml version="1.0" encoding="UTF-8"?>
<svg id="Layer_1" data-name="Layer 1" xmlns="http://www.w3.org/2000/svg" viewBox="0 0 1989.65 1988.34">
  <defs>
    
  </defs>
  <path fill="currentColor" stroke="currentColor" d="m437.02,1983.09c-14.34,7.37-31.56,6.72-45.18-1.91-30.02-19.02-38.83-46.69-32.09-86.21,34.67-203.4,66.72-407.25,100.21-610.85,1.69-10.29-.2-16.74-7.39-23.83-21.2-20.92-41.67-42.57-62.47-63.89-122.55-125.62-245.04-251.28-367.73-376.76-19.28-19.71-28.05-41.83-18.46-68.75,8.62-24.22,26.58-37.43,51.75-41.26,196.96-30.01,393.92-60.1,590.92-89.87,12.63-1.91,20.12-6.87,25.83-19.11,86.59-185.77,173.85-371.23,260.7-556.89,8.57-18.32,19.37-33.6,39.43-40.24,34.74-11.49,66.13,2.8,82.7,38.06,87.45,186.09,174.96,372.15,261.85,558.51,6.07,13.02,14.08,17.88,27.38,19.88,191.27,28.73,382.42,58.24,573.76,86.49,22.5,3.32,41.37,10.15,55.22,24.23,10.56,10.74,16.23,25.36,16.23,40.43h0c0,12.91-4.29,25.45-12.16,35.69-5.28,6.88-10.68,13.68-16.83,19.97-140.8,143.92-281.28,288.16-421.89,432.28-6.35,6.51-11.42,11.8-9.53,23.12,25.27,151.17,49.75,302.46,74.44,453.72,9.27,56.8,18.74,113.58,27.79,170.42,5.34,33.57-4.94,57.89-29.74,71.78-2.82,1.58-5.72,3.03-8.63,4.44-14.91,7.18-32.36,6.78-46.86-1.2-7.13-3.92-14.25-7.84-21.37-11.77-171.42-94.77-342.89-189.43-514.11-284.56-11.49-6.38-20.04-6.48-31.57.02-65.87,37.16-132.07,73.76-198.47,109.96-114.67,62.52-227.49,128.42-343.7,188.13Z"/>
</svg>