<?xml version="1.0" encoding="UTF-8"?>
<svg id="Layer_1" data-name="Layer 1" xmlns="http://www.w3.org/2000/svg" viewBox="0 0 1989.65 1988.34">
  <defs>

  </defs>
  <path fill="currentColor" stroke="currentColor" d="m1544.29,1988.34h-7.97c-13.63,0-27.03-3.46-38.95-10.05l-502.37-277.8c-59.18,33.31-118.55,66.16-178.2,98.64-38.63,21.01-76.89,42.39-115.25,63.86-73.04,40.74-146.17,81.57-220.77,119.65h0c-7.3,3.74-15.38,5.69-23.58,5.69h-22.23c-7.78,0-15.46-1.76-22.46-5.14h0c-40.28-19.18-85.34-59.83-71.02-143.79,21.93-128.46,42.76-256.93,63.5-385.48l29.27-180.12c-10.19-10.28-20.28-20.83-30.46-31.29L35.93,865.48c-45.79-46.61-37.99-94.6-29.27-119.1,14.41-40.37,46.43-66.34,90.2-73.04l549.64-83.59L889.02,71.67c5.87-12.48,23.77-50.83,68.36-65.52,58.08-18.81,114.97,6.42,141.77,63.41l35.33,75.15c69.65,148.28,139.29,296.47,208.48,444.94l190.77,28.9c114.52,17.34,229.03,34.78,343.64,51.66,54.23,8.07,90.75,34.78,108.55,79.46l3.67,19.27v19.84c0,20.65-7.06,40.69-20,56.78h0c-6.97,9.18-14.04,18.26-22.21,26.61l-392.27,401.91c18.63,111.76,36.89,223.8,55.15,335.84l39.27,240.78c8.44,53.13-11.29,97.54-54.14,121.58-5.6,3.12-11.01,5.69-16.52,8.26l-.36.17c-6.77,3.18-13.94,5.4-21.32,6.59h0c-4.26.69-8.58,1.04-12.9,1.04Zm-549.48-395.94c13.49,0,26.89,3.67,40.37,11.1l505.32,279.77,4.13-2.02c1.84-1.38,3.4-4.68,1.93-14.22l-39.18-240.32c-19.09-116.99-38.08-233.89-57.62-350.7-6.06-37.25,15.32-59,23.31-67.17l399.7-409.43c4.59-4.77,8.63-10,12.57-15.23v-2.39c-3.21-3.4-9.36-6.42-23.31-8.44-114.61-16.98-229.31-34.32-343.91-51.75l-199.76-30.19c-30.65-4.68-52.58-20.92-65.42-48.17-70.65-151.68-141.77-302.9-212.79-454.21l-35.33-75.06c-5.6-12.11-9.45-10.37-14.77-8.81-.28.09-2.48,1.93-6.51,10.64l-247.11,527.8c-12.66,27.07-34.13,43.04-63.77,47.53l-560.01,85.24-8.44,7.8c0,.09.83,2.84,6.24,8.35l368.41,377.59c12.75,13.31,25.51,26.52,38.63,39.46,18.99,18.72,26.24,41.66,21.75,68.36l-31.29,192.6c-20.83,128.83-41.66,257.66-63.68,386.4-2.57,15.23-1.65,21.75,2.66,25.97,68.73-35.51,136.26-73.22,203.8-110.94,38.63-21.66,77.26-43.22,116.17-64.42,62.76-34.13,125.16-68.73,187.46-103.87,13.4-7.52,26.98-11.29,40.47-11.29Zm-558.45-331.62v.18-.18Z"/>
</svg>