<?xml version="1.0" encoding="UTF-8"?>
<svg id="Layer_1" data-name="Layer 1" xmlns="http://www.w3.org/2000/svg" viewBox="0 0 1744.23 1732.65">
  <defs>
    <style>
      .clsi-1 {
        fill: #31353d;
      }

      .clsi-1, .clsi-2 {
        stroke-width: 0px;
      }

      .clsi-2 {
        fill: #fff;
      }
    </style>
  </defs>
  <circle class="clsi-2" cx="877.91" cy="866.32" r="866.32"/>
  <g>
    <path class="clsi-1" d="m1450.59,924.26c-.09,3.07-.23,6.14-.26,9.21-.43,47.9-.56,95.8-1.37,143.7-.52,30.97-1.7,61.95-4.51,92.82-4.29,47.22-15.46,92.65-36.71,135.24-21.09,42.29-51.73,76.49-89.66,104.4-39.73,29.23-84.8,45.36-132.8,54.31-23.94,4.46-48.14,6.53-72.45,7.8-92.92,4.86-185.92,2.93-278.89,3.37-32.28.16-64.56-.35-96.83-.18-35.88.18-71.7-1.69-107.49-3.5-37.63-1.9-74.59-8.38-110.69-19.77-21.07-6.65-40.85-15.67-59.77-26.92-10-5.95-20.24-11.42-29.15-19.05-4.36-3.73-8.87-7.24-12.95-11.35-4.28-4.31-9.56-7.61-13.96-11.81-15-14.34-27.21-30.98-38.95-48-21.34-30.93-33.53-65.72-43.22-101.61-6.66-24.66-9.3-49.94-11.03-75.27-5.89-86.46-4.49-173.06-4.62-259.63-.08-55.33.3-110.66.47-166,.26-2.28.7-4.56.74-6.84.43-27.15,1.5-54.27,3.54-81.34,3.76-49.95,14.23-98.31,37.26-143.14,35.76-69.6,91.05-117.21,164.62-143.69,34.91-12.56,71.05-19.04,107.93-21.68,72.62-5.19,145.38-4.72,218.12-4.72,60.2,0,120.39.24,180.59.25,34.85,0,69.65,1.66,104.43,3.46,45.18,2.34,89.35,10.16,131.75,26.86,56.6,22.3,101.28,59.25,135.5,109.09,23.81,34.69,37.92,73.51,46.59,114.43,5.63,26.59,8.17,53.55,9.7,80.69,2.86,50.66,2.98,101.37,3.28,152.07.2,34.06.35,68.13.54,102.19,0,1.53.18,3.06.27,4.59Zm-104.49-136.77c.08-.51.22-1.01.22-1.52,0-46.35-1.11-92.66-4.49-138.92-1.85-25.26-7.53-49.64-15.08-73.63-8.74-27.78-23.83-51.94-44.29-72.6-13.5-13.64-28.25-25.36-45.98-33.78-19.61-9.32-39.69-16.89-60.6-22.18-18.63-4.72-37.83-6.59-56.99-7.56-36.57-1.86-73.16-3.4-109.79-3.42-75.82-.04-151.63-.19-227.45-.22-54.3-.02-108.6.21-162.75,4.93-28.68,2.5-56.54,8.71-83.38,19.48-28.72,11.53-52.66,29.66-72.58,52.86-22.06,25.69-34.93,56.14-42.36,89.02-5.21,23.04-7.62,46.43-8.93,69.96-.69,12.51-.88,25.06-1.3,37.59-.52,15.87-1.45,31.73-1.5,47.6-.37,110.65-1.76,221.31.95,331.95.77,31.49,1.84,62.96,6.3,94.21,3.64,25.48,10.14,50.31,21.56,73.32,22.05,44.45,56.25,76.09,102.86,94.11,32.4,12.52,66.2,17.51,100.53,19.3,38.1,1.99,76.24,3.36,114.41,3.42,50.21.08,100.41.25,150.62.22,74.27-.05,148.57.88,222.73-4.5,26.88-1.95,53.27-6.53,78.78-15.51,51.09-18,88.61-51.23,111.56-100.38,12.69-27.17,19.1-56.16,22.03-85.86,3.25-32.89,4.24-65.93,4.74-98.95.64-41.74.93-83.5.97-125.25.05-49.43-.33-98.87-.54-148.3,0-1.79-.17-3.58-.26-5.37Z"/>
    <path class="clsi-1" d="m713.6,657.88c37.39-23.5,77.5-39.57,121.47-45.91,20.86-3.01,41.72-3.86,62.6-2.52,27.07,1.74,53.54,7.01,79.09,16.43,1.66.61,3.4,1,5.1,1.5,15.78,6.71,31.39,13.73,46.13,22.59,28.13,16.9,52.59,37.98,73.87,62.96,23.67,27.79,41.69,58.76,53.51,93.24,16.21,47.3,20.57,95.83,12.19,145.1-11.36,66.81-42.38,123.26-92.35,169.1-23.93,21.95-50.92,39.56-80.7,52.36-23.75,10.21-48.57,17.2-74.36,20.73-76.4,10.45-146.82-5.31-210-49.4-66.99-46.76-107.82-111.05-122.08-191.64-10.61-59.97-2.36-117.68,22.68-173.14,11.19-24.78,26.26-46.98,43.56-67.8,13.11-15.78,28.21-29.44,44.37-41.99,4.98-3.87,9.04-8.9,14.92-11.6Zm354.63,244.75c.9-103.03-84.16-190.52-190.48-190.64-102.46-.12-190.97,82.68-190.91,191.17.05,107.54,87.95,190.37,191.13,190.5,103.58.13,191.2-86.62,190.27-191.03Z"/>
    <path class="clsi-1" d="m1117.19,618.03c-.67-4.02-1.48-8.02-1.97-12.07-3.12-25.76,5.92-46.73,25.83-62.88,20.44-16.58,43.69-18.69,67.48-9.45,24.23,9.41,38.25,27.91,42.63,53.76,5.3,31.26-14.79,65.36-47.53,75.49-2.19.68-4.42,1.27-6.63,1.9-14.44,2.55-28.43,1.24-41.86-4.85-16.28-7.39-27.94-19.35-35.16-35.67-.92-2.08-1.87-4.15-2.8-6.23Z"/>
  </g>
</svg>