<?xml version="1.0" encoding="UTF-8"?>
<svg id="Layer_1" data-name="Layer 1" xmlns="http://www.w3.org/2000/svg" viewBox="0 0 1744.23 1744.23">
  <defs>
    <style>
      .clsx-1 {
        fill: #31353d;
      }

      .clsx-1, .clsx-2 {
        stroke-width: 0px;
      }

      .clsx-2 {
        fill: #fff;
      }
    </style>
  </defs>
  <circle class="clsx-2" cx="872.11" cy="872.11" r="872.11"/>
  <path class="clsx-1" d="m379.99,1388.59c127.26-145.4,253.82-290,380.61-434.86-133.76-174.84-267.35-349.47-401.57-524.91,2.5-.1,4.08-.22,5.67-.22,18.47-.01,36.93,0,55.4,0,88.97,0,177.94,0,266.91,0,1.22,0,2.46.15,3.66-.03,3.3-.48,5.29,1.12,7.19,3.64,18.05,24.02,36.2,47.97,54.33,71.93,57.24,75.65,114.49,151.31,171.73,226.95,1,1.32,2.05,2.59,3.33,4.22,2.28-2.57,4.31-4.81,6.3-7.09,86.21-98.49,172.42-196.98,258.54-295.55,2.7-3.09,5.41-4.17,9.38-4.16,50.21.11,100.42.07,150.62.08,1.75,0,3.49.1,6.37.19-119.06,136.02-237.35,271.17-355.81,406.51,139.49,184.34,278.8,368.44,418.71,553.34-2.65.08-4.4.17-6.15.17-72.64,0-145.28,0-217.92,0-32.96,0-65.93-.05-98.89.07-3.38.01-5.52-.95-7.63-3.71-59.98-78.56-120.05-157.04-180.12-235.54-23.54-30.77-47.09-61.53-70.64-92.3-1.01-1.32-2.07-2.6-3.3-4.13-1.2,1.32-2.24,2.4-3.23,3.53-81.7,93.31-163.39,186.63-245.09,279.95-14.37,16.41-28.78,32.79-43.09,49.26-1.75,2.01-3.54,2.92-6.24,2.92-51.58-.07-103.17-.05-154.75-.06-1.03,0-2.07-.11-4.31-.23Zm848.83-97.29c-2.04-2.74-3.38-4.56-4.74-6.36-27.15-35.88-54.31-71.76-81.45-107.64-53.83-71.16-107.66-142.32-161.49-213.48-74.27-98.16-148.54-196.31-222.81-294.46-36.63-48.41-73.27-96.81-109.86-145.24-1.56-2.07-3.07-3.36-5.95-3.35-29.76.11-59.52.06-89.27.09-1.09,0-2.18.27-3.84.49,1.97,2.62,3.51,4.69,5.08,6.74,64.42,84.18,128.85,168.36,193.27,252.54,67.39,88.06,134.76,176.13,202.14,264.2,62,81.04,124.02,162.07,185.97,243.15,1.85,2.42,3.73,3.41,6.82,3.4,27.01-.12,54.02-.07,81.03-.07h5.12Z"/>
</svg>