<?xml version="1.0" encoding="UTF-8"?>
<svg id="Layer_1" data-name="Layer 1" xmlns="http://www.w3.org/2000/svg" xmlns:xlink="http://www.w3.org/1999/xlink" viewBox="0 0 1744.23 1732.65">
  <defs>
    <style>
      .clsf-1 {
        fill: #31353d;
      }

      .clsf-1, .clsf-2, .clsf-3 {
        stroke-width: 0px;
      }

      .clsf-2 {
        fill: none;
      }

      .clsf-3 {
        fill: #fff;
      }

      .clsf-4 {
        clip-path: url(#clippath);
      }
    </style>
    <clipPath id="clippath">
      <circle class="clsf-2" cx="877.46" cy="866.77" r="866.77"/>
    </clipPath>
  </defs>
  <circle class="clsf-3" cx="877.46" cy="866.77" r="866.77"/>
  <g class="clsf-4">
    <path class="clsf-1" d="m730.33,1795.35s.03-100.73.07-151.1c.1-155.7.14-311.41.4-467.11.01-6.4-1.73-8.02-8.06-8-68.52.23-137.04.05-205.56.29-6.36.02-8.05-1.59-8.03-8,.23-77.98.23-155.96,0-233.94-.02-6.46,1.85-7.97,8.12-7.94,68.52.23,137.04.04,205.56.3,6.69.02,8.55-1.54,8.53-8.41-.2-63.15-.02-126.3.12-189.45.12-56.27,11.32-110.13,35.54-161.09,31.33-65.93,78.41-115.58,147.92-141.41,57.63-21.41,117.81-27.67,178.72-26.21,49.4,1.19,98.03,10.29,146.69,18.37,5.48.91,5.35,4.02,5.34,8.05-.05,64.94-.13,129.88.11,194.83.02,6.14-1.75,7.58-7.67,7.53-40.13-.3-80.26.57-120.3,2.99-45.17,2.73-79.08,23.94-99.39,64.92-15.35,30.97-18.85,64.63-19.48,98.49-.76,40.89.03,81.81-.37,122.71-.07,7.35,2.27,8.68,8.99,8.66,73.89-.22,147.78-.09,221.67-.24,5.56-.01,7.36.72,6.48,7.13-10.76,78.48-21.24,156.99-31.49,235.54-.83,6.37-3.28,7.66-9.21,7.64-62.9-.21-125.79-.05-188.69-.26-6.03-.02-7.74,1.57-7.7,7.67.27,40.91.14,81.82.14,122.72,0,164.91,0,494.74,0,494.74l-268.43.59Z"/>
  </g>
</svg>