<?xml version="1.0" encoding="UTF-8"?>
<svg id="Layer_1" data-name="Layer 1" xmlns="http://www.w3.org/2000/svg" viewBox="0 0 2000 1101.43" >

  <path fill="currentColor" stroke="currentColor" d="m146.95,1101.66c-18.76.04-26.04-4.2-28.92-23.89-19.33-132.37-40.08-264.53-60.42-396.75C39.07,560.44,20.91,439.8,1.58,319.35c-5.01-31.23,1.29-56.62,27.87-74.8,24.3-16.62,53.28-14.37,81.08,6.4,120.14,89.77,240.14,179.73,360.06,269.8,60.07,45.12,111.28,36.54,153.06-26.16,98.16-147.33,198.7-293.15,293.41-442.66,44.36-70.04,121.68-68.75,164.78-.88,94.88,149.39,195.31,295.25,293.44,442.57,42.65,64.02,93.1,72.63,154.4,26.59,119.38-89.65,238.77-179.29,358.36-268.66,36.99-27.64,79.47-21.91,101.65,12.69,9.9,15.44,11.94,32.21,9.2,49.99-24.82,160.98-49.51,321.99-74.39,482.96-14.61,94.53-30.08,188.93-43.74,283.59-2.52,17.46-9.13,20.77-25.05,20.75-285.49-.43-1424.65-.5-1708.75.12Z"/>
</svg>