<?xml version="1.0" encoding="UTF-8"?>
<svg id="Layer_1" data-name="Layer 1" xmlns="http://www.w3.org/2000/svg" viewBox="0 0 2000 1997.91">
  <defs>
   
  </defs>
  <path fill="currentColor" stroke="currentColor" d="m999.88,0c-25.79.08-45.43,16.45-53.81,45.7-25.09,87.57-49.61,175.3-74.98,262.78-75.59,260.67-238.74,442.99-493.58,536.87-106.72,39.31-218.49,64.92-327.99,96.66C17.03,951.42.38,969.13,0,995.27c-.37,26.13,16.51,45.23,48.24,54.29,93.06,26.58,186.66,51.45,279.13,79.95,269.1,82.94,448.57,258.59,534.95,526.84,30.67,95.25,55.66,192.33,83.54,288.48,2.94,10.13,6.32,20.75,12.21,29.27,11.62,16.82,28.87,24.18,49.32,21.02,24.81-3.84,38.49-19.96,45.11-43.27,25.34-89.2,50.35-178.5,76.24-267.55,78.85-271.19,250.59-455.58,518.41-546.35,99.32-33.66,201.55-58.72,302.4-87.87,34.46-9.96,50.96-28.32,50.43-55.04-.52-26.05-16.47-43.5-49.74-53.06-87.5-25.13-175.29-49.27-262.6-75.03-282.38-83.32-468.76-264.76-554.88-547.03-27.77-91.04-52.54-182.99-78.84-274.48C1045.59,16.43,1025.6-.08,999.88,0Z"/>
  <g>
    <rect class="cls-2" x="708.15" y="1973.16" width="10.5" height="10.5" rx="1.28" ry="1.28"/>
    <path class="cls-2" d="m718.65,1977.09l3.89-2.84c.69-.51,1.67-.01,1.67.85v6.27c0,.85-.96,1.35-1.65.86l-3.9-2.75v-2.39Z"/>
    <line class="cls-2" x1="711.18" y1="1976.05" x2="713.87" y2="1976.05"/>
  </g>
</svg>