<?xml version="1.0" encoding="UTF-8"?>
<svg id="Layer_1" data-name="Layer 1" xmlns="http://www.w3.org/2000/svg" viewBox="0 0 2022.46 1836.78">
  <defs>

  </defs>
  <path d="m487.96,1836.78c-7.86,0-15.8-1.68-23.29-5.19-19.32-9.01-31.38-27.87-31.53-49.17l-2.44-328.62c0-5.12-4.2-9.16-9.24-9.16H150.41C67.49,1444.64,0,1377.15,0,1294.15V150.41C0,67.49,67.49,0,150.41,0h1721.64C1954.97,0,2022.46,67.49,2022.46,150.41v1143.74c0,82.99-67.49,150.49-150.41,150.49h-888.96l-460.55,379.62c-10.08,8.25-22.22,12.52-34.59,12.52ZM150.41,78.18c-39.86,0-72.23,32.37-72.23,72.23v1143.74c0,39.86,32.37,72.3,72.23,72.3h271.05c47.95,0,87.12,38.94,87.42,86.81l2.06,279.22,433.22-357.09c7.02-5.8,15.8-8.93,24.89-8.93h903c39.86,0,72.23-32.45,72.23-72.3V150.41c0-39.86-32.37-72.23-72.23-72.23H150.41Z"/>
  <path d="m1044.33,890.79H463.45c-21.61,0-39.09-17.48-39.09-39.09s17.48-39.09,39.09-39.09h580.88c21.61,0,39.09,17.48,39.09,39.09s-17.48,39.09-39.09,39.09Z"/>
  <path d="m1613.15,616.92H463.45c-21.61,0-39.09-17.48-39.09-39.09s17.48-39.09,39.09-39.09h1149.7c21.61,0,39.09,17.48,39.09,39.09s-17.48,39.09-39.09,39.09Z"/>
</svg>