<?xml version="1.0" encoding="UTF-8"?>
<svg id="Layer_1" data-name="Layer 1" xmlns="http://www.w3.org/2000/svg" viewBox="0 0 1845.91 2342.03">
  <defs>
    <style>
      .cls-1 {
        fill: #31353d;
        stroke-width: 0px;
      }
    </style>
  </defs>
  <path class="cls-1" d="m1738.51,1033.3c-27.87,0-55.62-10.58-76.91-31.87L845.93,185.75c-42.45-42.45-42.45-111.36,0-153.82,42.58-42.58,111.23-42.58,153.82,0l815.67,815.67c42.45,42.45,42.45,111.36,0,153.82-21.29,21.29-49.04,31.87-76.91,31.87Z"/>
  <path class="cls-1" d="m107.3,1033.3c-27.87,0-55.62-10.58-76.91-31.87-42.45-42.45-42.45-111.36,0-153.82L845.93,31.94c42.58-42.58,111.23-42.58,153.82,0,42.45,42.45,42.45,111.36,0,153.82L184.21,1001.42c-21.29,21.29-49.04,31.87-76.91,31.87Z"/>
  <path class="cls-1" d="m922.84,2342.03c-60.13,0-108.78-48.65-108.78-108.78V108.85C814.06,48.71,862.71.06,922.84.06s108.78,48.65,108.78,108.78v2124.41c0,60.13-48.65,108.78-108.78,108.78Z"/>
</svg>