<?xml version="1.0" encoding="UTF-8"?>
<svg id="Layer_1" data-name="Layer 1" xmlns="http://www.w3.org/2000/svg" viewBox="0 0 2000 2000">
  <defs>
    <style>
      .cls-1 {
        fill: #31353d;
        stroke-width: 0px;
      }
    </style>
  </defs>
  <path class="cls-1" d="m840.55,591.26c6.42,0,12.87,2.12,18.23,6.51l464.69,378.93c6.71,5.48,10.64,13.68,10.64,22.36s-3.87,16.89-10.58,22.39l-464.69,380.74c-12.44,10.09-30.56,8.26-40.68-4.04-10.12-12.36-8.29-30.56,4.04-40.68l437.33-358.32-437.28-356.6c-12.36-10.09-14.22-28.3-4.13-40.65,5.71-7,14.02-10.64,22.42-10.64Z"/>
  <path class="cls-1" d="m999.99,0c551.41,0,1000.01,448.6,1000.01,999.99s-448.6,1000.01-1000.01,1000.01S0,1551.4,0,999.99,448.6,0,999.99,0Zm0,1942.2c519.53,0,942.22-422.68,942.22-942.22S1519.52,57.8,999.99,57.8,57.8,480.45,57.8,999.99s422.66,942.22,942.19,942.22Z"/>
</svg>