<?xml version="1.0" encoding="UTF-8"?>
<svg id="Layer_1" data-name="Layer 1" xmlns="http://www.w3.org/2000/svg" viewBox="0 0 1595.19 1925.73">
  <defs>
    <style>
      .cls-1 {
        fill: #31353d;
        stroke-width: 0px;
      }
    </style>
  </defs>
  <path class="cls-1" d="m795.47,1925.72c-240.2,0-480.41,0-720.61,0-52.35,0-74.8-22.3-74.81-74.3-.02-95.17-.12-190.33.02-285.5.37-250.87,173.6-454.12,421.37-493.48,26.35-4.19,474.99-5.47,672.39-5.37,252.97.13,455.46,171.8,495.73,420.97,4.15,25.71,5.11,52.14,5.27,78.25.6,95.16.25,190.33.23,285.49-.01,51.18-22.53,73.93-73.24,73.93-242.12.02-484.24,0-726.36,0Z"/>
  <path class="cls-1" d="m796.62,858.63c-236.65-.43-428.67-193.05-428.47-429.79C368.35,191.38,561.57-.76,799.41,0c236.47.76,428.27,193.99,427.57,430.73-.7,236.65-193.49,428.33-430.35,427.9Z"/>
</svg>