<?xml version="1.0" encoding="UTF-8"?>
<svg id="Layer_1" data-name="Layer 1" xmlns="http://www.w3.org/2000/svg" viewBox="0 0 2022.46 1358.27">
  <defs>

  </defs>
  <path d="m1153.23,1358.27H205.04c-113.05,0-205.04-91.98-205.04-204.98V205.09C0,91.98,91.98,0,205.04,0h948.2c113.05,0,205.04,91.98,205.04,205.09v948.2c0,112.99-91.98,204.98-205.04,204.98ZM205.04,103.42c-56.03,0-101.61,45.64-101.61,101.67v948.2c0,56.03,45.58,101.56,101.61,101.56h948.2c56.03,0,101.61-45.52,101.61-101.56V205.09c0-56.03-45.58-101.67-101.61-101.67H205.04Z"/>
  <path  d="m1845.21,1210.14c-35.78,0-71.44-10.86-101.96-32.45l-466.45-328.36c-13.77-9.69-21.95-25.45-21.95-42.26v-285.17c0-16.58,7.88-31.98,21.19-41.79l464.7-339.33c54.28-39.45,125.13-45.17,184.84-14.82,59.77,30.47,96.89,90.93,96.89,158.05v748.82c0,66.42-36.65,126.77-95.66,157.35-25.74,13.42-53.75,19.96-81.59,19.96Zm-486.94-429.92l444.57,312.95c22.88,15.88,51.36,18.21,76.34,5.14,24.98-12.96,39.86-37.35,39.86-65.49V284c0-28.37-15.12-53-40.33-65.84-25.27-12.72-54.1-10.62-76.98,6.19l-443.46,323.81v232.06Z"/>
  <path  d="m734.87,448.71h-321.53c-28.6,0-51.71-23.11-51.71-51.71s23.11-51.71,51.71-51.71h321.53c28.6,0,51.71,23.11,51.71,51.71s-23.11,51.71-51.71,51.71Z"/>
</svg>