<?xml version="1.0" encoding="UTF-8"?>
<svg id="Layer_1" data-name="Layer 1" xmlns="http://www.w3.org/2000/svg" viewBox="0 0 1000 597.09">
  <defs>
    <style>
      .vists-1 {
        fill: #31353d;
      }

      .vists-1, .vists-2 {
        stroke-width: 0px;
      }

      .vists-2 {
        fill: #fff;
      }
    </style>
  </defs>
  <path class="vists-1" d="m971.78,351.89c-63.12,76.71-136.81,140.71-225.84,185.85-60.86,30.81-124.87,50.42-193.02,56.83-132.16,12.58-251.74-22.51-361.27-95.57-71.05-47.41-130.4-107.14-182.08-174.79-12.7-16.72-12.83-34.71,0-51.3,59.6-78.09,129.27-145.11,214.4-195.16C294.39,36.4,369.84,10.11,451.45,2.44c118.83-11.19,228.48,16.35,330.46,76.71,84.38,49.92,153.29,116.82,212.39,194.4.63.75,1.13,1.89,1.76,3.14,5.66,11.82,5.16,25.65-1.01,37.22-6.79,12.7-16.35,29.55-23.14,37.85l-.13.13Z"/>
  <path class="vists-2" d="m501.49,436.78c77.46-1.13,137.69-63.63,136.94-141.97-.75-73.81-64.76-135.56-139.07-134.55-78.22,1.13-138.2,63-137.44,141.97.75,74.06,64.63,135.68,139.7,134.55h-.13Z"/>
</svg>